<svg width="70" height="72" viewBox="0 0 70 72" fill="none" xmlns="http://www.w3.org/2000/svg">
<mask id="path-1-inside-1_78_93" fill="white">
<path fill-rule="evenodd" clip-rule="evenodd" d="M9.98375 6.53777C9.6031 6.91843 8.98594 6.91843 8.60528 6.53777L5.15912 3.0916C4.77846 2.71095 4.77846 2.09379 5.15912 1.71313C5.53977 1.33248 6.15693 1.33248 6.53758 1.71313L9.98375 5.1593C10.3644 5.53996 10.3644 6.15712 9.98375 6.53777Z"/>
<path fill-rule="evenodd" clip-rule="evenodd" d="M23.7183 7.14798C23.1799 7.14798 22.7435 6.71158 22.7435 6.17325V0.974724C22.7435 0.436399 23.1799 0 23.7183 0C24.2566 0 24.693 0.436399 24.693 0.974724V6.17325C24.693 6.71158 24.2566 7.14798 23.7183 7.14798Z"/>
<path fill-rule="evenodd" clip-rule="evenodd" d="M37.847 6.53777C37.4664 6.15712 37.4664 5.53996 37.847 5.1593L41.2932 1.71313C41.6738 1.33248 42.291 1.33248 42.6716 1.71313C43.0523 2.09379 43.0523 2.71095 42.6716 3.0916L39.2255 6.53777C38.8448 6.91843 38.2277 6.91843 37.847 6.53777Z"/>
<path fill-rule="evenodd" clip-rule="evenodd" d="M0 13.9713C0 13.4329 0.436399 12.9965 0.974724 12.9965H6.17325C6.71158 12.9965 7.14797 13.4329 7.14797 13.9713C7.14797 14.5096 6.71158 14.946 6.17325 14.946H0.974724C0.436399 14.946 0 14.5096 0 13.9713Z"/>
<path fill-rule="evenodd" clip-rule="evenodd" d="M40.9384 13.9713C40.9384 13.4329 41.3748 12.9965 41.9131 12.9965H46.4618C47.0001 12.9965 47.4365 13.4329 47.4365 13.9713C47.4365 14.5096 47.0001 14.946 46.4618 14.946H41.9131C41.3748 14.946 40.9384 14.5096 40.9384 13.9713Z"/>
<path fill-rule="evenodd" clip-rule="evenodd" d="M47.1116 48.7363C47.1116 61.1178 37.0744 71.155 24.693 71.155C12.3115 71.155 2.27431 61.1178 2.27431 48.7363C2.27431 39.2522 8.16353 31.1436 16.4845 27.868C17.4067 27.505 18.3588 27.2013 19.3361 26.9617C21.0526 26.5408 22.8467 26.3177 24.693 26.3177C26.0065 26.3177 27.2936 26.4306 28.5451 26.6474C29.5757 26.8258 30.5822 27.0747 31.5594 27.3888C33.9868 28.1689 36.2337 29.3516 38.2216 30.8582C37.3578 31.2727 36.5287 31.7481 35.7398 32.2786C32.5834 30.1557 28.7828 28.9169 24.693 28.9169C13.747 28.9169 4.87358 37.7904 4.87358 48.7363C4.87358 59.6823 13.747 68.5557 24.693 68.5557C27.7607 68.5557 30.6656 67.8587 33.2581 66.6145C34.1219 66.1999 34.951 65.7246 35.7398 65.194C36.8497 64.4476 37.88 63.5918 38.8151 62.6422C39.4366 62.0111 40.016 61.3386 40.549 60.6292C43.0376 57.3165 44.5123 53.1986 44.5123 48.7363C44.5123 43.3184 42.3384 38.4082 38.8151 34.8305C39.6033 34.3777 40.4336 33.99 41.2987 33.6747C44.9107 37.6546 47.1116 42.9384 47.1116 48.7363ZM11.2663 48.7363C11.2663 56.1517 17.2776 62.163 24.693 62.163C32.1083 62.163 38.1196 56.1517 38.1196 48.7363C38.1196 44.9377 36.5422 41.5076 34.0067 39.0652C34.5316 38.3727 35.1115 37.7241 35.7398 37.126C38.8071 40.0454 40.7189 44.1676 40.7189 48.7363C40.7189 52.3691 39.5102 55.7195 37.473 58.4075C36.9481 59.1 36.3682 59.7485 35.7398 60.3466C34.8132 61.2285 33.7812 62.0007 32.6645 62.6422C31.8764 63.095 31.0461 63.4827 30.181 63.798C28.469 64.4219 26.6207 64.7623 24.693 64.7623C15.8421 64.7623 8.66701 57.5872 8.66701 48.7363C8.66701 39.8854 15.8421 32.7104 24.693 32.7104C27.5949 32.7104 30.3167 33.4817 32.6645 34.8305C32.0431 35.4615 31.4636 36.134 30.9307 36.8435C29.0669 35.8639 26.9446 35.3096 24.693 35.3096C17.2776 35.3096 11.2663 41.321 11.2663 48.7363Z"/>
<path fill-rule="evenodd" clip-rule="evenodd" d="M69.2053 48.7363C69.2053 61.1178 59.1682 71.155 46.7867 71.155C41.705 71.155 37.0181 69.4642 33.2581 66.6145C34.1219 66.1999 34.951 65.7246 35.7398 65.194C38.8963 67.3169 42.6968 68.5557 46.7867 68.5557C57.7326 68.5557 66.6061 59.6823 66.6061 48.7363C66.6061 37.7904 57.7326 28.9169 46.7867 28.9169C43.719 28.9169 40.814 29.6139 38.2216 30.8582C37.3578 31.2727 36.5287 31.7481 35.7398 32.2786C34.6299 33.0251 33.5997 33.8808 32.6645 34.8305C32.0431 35.4615 31.4636 36.134 30.9307 36.8435C28.442 40.1561 26.9673 44.274 26.9673 48.7363C26.9673 54.1543 29.1413 59.0645 32.6645 62.6422C31.8764 63.095 31.0461 63.4827 30.181 63.798C26.569 59.8181 24.368 54.5342 24.368 48.7363C24.368 36.3548 34.4052 26.3177 46.7867 26.3177C59.1682 26.3177 69.2053 36.3548 69.2053 48.7363ZM40.549 60.6292C42.4128 61.6087 44.535 62.163 46.7867 62.163C54.202 62.163 60.2134 56.1517 60.2134 48.7363C60.2134 41.321 54.202 35.3096 46.7867 35.3096C39.3713 35.3096 33.36 41.321 33.36 48.7363C33.36 52.5349 34.9374 55.9651 37.473 58.4075C36.9481 59.1 36.3682 59.7485 35.7398 60.3466C32.6726 57.4273 30.7607 53.3051 30.7607 48.7363C30.7607 45.1036 31.9695 41.7531 34.0067 39.0652C34.5316 38.3727 35.1115 37.7241 35.7398 37.126C36.6664 36.2441 37.6985 35.472 38.8151 34.8305C39.6033 34.3777 40.4336 33.99 41.2987 33.6747C43.0106 33.0507 44.8589 32.7104 46.7867 32.7104C55.6376 32.7104 62.8126 39.8854 62.8126 48.7363C62.8126 57.5872 55.6376 64.7623 46.7867 64.7623C43.8847 64.7623 41.163 63.991 38.8151 62.6422C39.4366 62.0111 40.016 61.3386 40.549 60.6292Z"/>
<path d="M29.7521 25.5191C29.3596 25.9234 28.9542 26.2996 28.5451 26.6474C29.5757 26.8258 30.5822 27.0747 31.5594 27.3888C34.0333 24.8625 36.0649 21.3887 36.0649 17.0104C36.0649 13.175 32.9906 10.0719 29.2002 10.0719C28.134 10.0729 27.0828 10.3248 26.1309 10.8076C25.9626 10.893 25.7983 10.9851 25.6383 11.0837C24.8929 11.543 24.2406 12.143 23.7184 12.8523C23.1966 12.1459 22.545 11.5438 21.7991 11.0825C20.7624 10.4413 19.5433 10.0719 18.2365 10.0719C14.4462 10.0719 11.3719 13.175 11.3719 17.0104C11.3719 21.6809 13.7325 25.331 16.4268 27.8908C16.4461 27.8832 16.4653 27.8756 16.4845 27.868C17.4067 27.505 18.3588 27.2013 19.3361 26.9617L17.6847 25.5191C15.5622 23.3328 13.9712 20.4949 13.9712 17.0104C13.9712 14.5853 15.9068 12.6712 18.2365 12.6712C19.6165 12.6712 20.8451 13.3373 21.6277 14.3967C22.1182 15.0607 22.8949 15.4522 23.7205 15.4515C24.546 15.4509 25.3221 15.0581 25.8115 14.3934C26.2056 13.8582 26.7179 13.4244 27.3066 13.1258C27.895 12.8274 28.5438 12.672 29.2014 12.6712C31.5306 12.6719 33.4656 14.5857 33.4656 17.0104C33.4656 20.4949 31.8746 23.3328 29.7521 25.5191Z"/>
</mask>
<path fill-rule="evenodd" clip-rule="evenodd" d="M9.98375 6.53777C9.6031 6.91843 8.98594 6.91843 8.60528 6.53777L5.15912 3.0916C4.77846 2.71095 4.77846 2.09379 5.15912 1.71313C5.53977 1.33248 6.15693 1.33248 6.53758 1.71313L9.98375 5.1593C10.3644 5.53996 10.3644 6.15712 9.98375 6.53777Z" fill="#FFF0F8"/>
<path fill-rule="evenodd" clip-rule="evenodd" d="M23.7183 7.14798C23.1799 7.14798 22.7435 6.71158 22.7435 6.17325V0.974724C22.7435 0.436399 23.1799 0 23.7183 0C24.2566 0 24.693 0.436399 24.693 0.974724V6.17325C24.693 6.71158 24.2566 7.14798 23.7183 7.14798Z" fill="#FFF0F8"/>
<path fill-rule="evenodd" clip-rule="evenodd" d="M37.847 6.53777C37.4664 6.15712 37.4664 5.53996 37.847 5.1593L41.2932 1.71313C41.6738 1.33248 42.291 1.33248 42.6716 1.71313C43.0523 2.09379 43.0523 2.71095 42.6716 3.0916L39.2255 6.53777C38.8448 6.91843 38.2277 6.91843 37.847 6.53777Z" fill="#FFF0F8"/>
<path fill-rule="evenodd" clip-rule="evenodd" d="M0 13.9713C0 13.4329 0.436399 12.9965 0.974724 12.9965H6.17325C6.71158 12.9965 7.14797 13.4329 7.14797 13.9713C7.14797 14.5096 6.71158 14.946 6.17325 14.946H0.974724C0.436399 14.946 0 14.5096 0 13.9713Z" fill="#FFF0F8"/>
<path fill-rule="evenodd" clip-rule="evenodd" d="M40.9384 13.9713C40.9384 13.4329 41.3748 12.9965 41.9131 12.9965H46.4618C47.0001 12.9965 47.4365 13.4329 47.4365 13.9713C47.4365 14.5096 47.0001 14.946 46.4618 14.946H41.9131C41.3748 14.946 40.9384 14.5096 40.9384 13.9713Z" fill="#FFF0F8"/>
<path fill-rule="evenodd" clip-rule="evenodd" d="M47.1116 48.7363C47.1116 61.1178 37.0744 71.155 24.693 71.155C12.3115 71.155 2.27431 61.1178 2.27431 48.7363C2.27431 39.2522 8.16353 31.1436 16.4845 27.868C17.4067 27.505 18.3588 27.2013 19.3361 26.9617C21.0526 26.5408 22.8467 26.3177 24.693 26.3177C26.0065 26.3177 27.2936 26.4306 28.5451 26.6474C29.5757 26.8258 30.5822 27.0747 31.5594 27.3888C33.9868 28.1689 36.2337 29.3516 38.2216 30.8582C37.3578 31.2727 36.5287 31.7481 35.7398 32.2786C32.5834 30.1557 28.7828 28.9169 24.693 28.9169C13.747 28.9169 4.87358 37.7904 4.87358 48.7363C4.87358 59.6823 13.747 68.5557 24.693 68.5557C27.7607 68.5557 30.6656 67.8587 33.2581 66.6145C34.1219 66.1999 34.951 65.7246 35.7398 65.194C36.8497 64.4476 37.88 63.5918 38.8151 62.6422C39.4366 62.0111 40.016 61.3386 40.549 60.6292C43.0376 57.3165 44.5123 53.1986 44.5123 48.7363C44.5123 43.3184 42.3384 38.4082 38.8151 34.8305C39.6033 34.3777 40.4336 33.99 41.2987 33.6747C44.9107 37.6546 47.1116 42.9384 47.1116 48.7363ZM11.2663 48.7363C11.2663 56.1517 17.2776 62.163 24.693 62.163C32.1083 62.163 38.1196 56.1517 38.1196 48.7363C38.1196 44.9377 36.5422 41.5076 34.0067 39.0652C34.5316 38.3727 35.1115 37.7241 35.7398 37.126C38.8071 40.0454 40.7189 44.1676 40.7189 48.7363C40.7189 52.3691 39.5102 55.7195 37.473 58.4075C36.9481 59.1 36.3682 59.7485 35.7398 60.3466C34.8132 61.2285 33.7812 62.0007 32.6645 62.6422C31.8764 63.095 31.0461 63.4827 30.181 63.798C28.469 64.4219 26.6207 64.7623 24.693 64.7623C15.8421 64.7623 8.66701 57.5872 8.66701 48.7363C8.66701 39.8854 15.8421 32.7104 24.693 32.7104C27.5949 32.7104 30.3167 33.4817 32.6645 34.8305C32.0431 35.4615 31.4636 36.134 30.9307 36.8435C29.0669 35.8639 26.9446 35.3096 24.693 35.3096C17.2776 35.3096 11.2663 41.321 11.2663 48.7363Z" fill="#FFF0F8"/>
<path fill-rule="evenodd" clip-rule="evenodd" d="M69.2053 48.7363C69.2053 61.1178 59.1682 71.155 46.7867 71.155C41.705 71.155 37.0181 69.4642 33.2581 66.6145C34.1219 66.1999 34.951 65.7246 35.7398 65.194C38.8963 67.3169 42.6968 68.5557 46.7867 68.5557C57.7326 68.5557 66.6061 59.6823 66.6061 48.7363C66.6061 37.7904 57.7326 28.9169 46.7867 28.9169C43.719 28.9169 40.814 29.6139 38.2216 30.8582C37.3578 31.2727 36.5287 31.7481 35.7398 32.2786C34.6299 33.0251 33.5997 33.8808 32.6645 34.8305C32.0431 35.4615 31.4636 36.134 30.9307 36.8435C28.442 40.1561 26.9673 44.274 26.9673 48.7363C26.9673 54.1543 29.1413 59.0645 32.6645 62.6422C31.8764 63.095 31.0461 63.4827 30.181 63.798C26.569 59.8181 24.368 54.5342 24.368 48.7363C24.368 36.3548 34.4052 26.3177 46.7867 26.3177C59.1682 26.3177 69.2053 36.3548 69.2053 48.7363ZM40.549 60.6292C42.4128 61.6087 44.535 62.163 46.7867 62.163C54.202 62.163 60.2134 56.1517 60.2134 48.7363C60.2134 41.321 54.202 35.3096 46.7867 35.3096C39.3713 35.3096 33.36 41.321 33.36 48.7363C33.36 52.5349 34.9374 55.9651 37.473 58.4075C36.9481 59.1 36.3682 59.7485 35.7398 60.3466C32.6726 57.4273 30.7607 53.3051 30.7607 48.7363C30.7607 45.1036 31.9695 41.7531 34.0067 39.0652C34.5316 38.3727 35.1115 37.7241 35.7398 37.126C36.6664 36.2441 37.6985 35.472 38.8151 34.8305C39.6033 34.3777 40.4336 33.99 41.2987 33.6747C43.0106 33.0507 44.8589 32.7104 46.7867 32.7104C55.6376 32.7104 62.8126 39.8854 62.8126 48.7363C62.8126 57.5872 55.6376 64.7623 46.7867 64.7623C43.8847 64.7623 41.163 63.991 38.8151 62.6422C39.4366 62.0111 40.016 61.3386 40.549 60.6292Z" fill="#FFF0F8"/>
<path d="M29.7521 25.5191C29.3596 25.9234 28.9542 26.2996 28.5451 26.6474C29.5757 26.8258 30.5822 27.0747 31.5594 27.3888C34.0333 24.8625 36.0649 21.3887 36.0649 17.0104C36.0649 13.175 32.9906 10.0719 29.2002 10.0719C28.134 10.0729 27.0828 10.3248 26.1309 10.8076C25.9626 10.893 25.7983 10.9851 25.6383 11.0837C24.8929 11.543 24.2406 12.143 23.7184 12.8523C23.1966 12.1459 22.545 11.5438 21.7991 11.0825C20.7624 10.4413 19.5433 10.0719 18.2365 10.0719C14.4462 10.0719 11.3719 13.175 11.3719 17.0104C11.3719 21.6809 13.7325 25.331 16.4268 27.8908C16.4461 27.8832 16.4653 27.8756 16.4845 27.868C17.4067 27.505 18.3588 27.2013 19.3361 26.9617L17.6847 25.5191C15.5622 23.3328 13.9712 20.4949 13.9712 17.0104C13.9712 14.5853 15.9068 12.6712 18.2365 12.6712C19.6165 12.6712 20.8451 13.3373 21.6277 14.3967C22.1182 15.0607 22.8949 15.4522 23.7205 15.4515C24.546 15.4509 25.3221 15.0581 25.8115 14.3934C26.2056 13.8582 26.7179 13.4244 27.3066 13.1258C27.895 12.8274 28.5438 12.672 29.2014 12.6712C31.5306 12.6719 33.4656 14.5857 33.4656 17.0104C33.4656 20.4949 31.8746 23.3328 29.7521 25.5191Z" fill="#FFF0F8"/>
<path d="M28.5374 26.6539L27.6962 25.6633C27.3122 25.9894 27.1512 26.5081 27.2832 26.9943C27.4152 27.4805 27.8162 27.8467 28.3124 27.9339L28.5374 26.6539ZM31.5466 27.4019L31.1459 28.6382C31.6147 28.7901 32.1291 28.6638 32.4743 28.3121L31.5466 27.4019ZM30.9307 36.8435L29.8916 36.0628L28.9745 37.2836L30.326 37.9939L30.9307 36.8435ZM32.6645 34.8305L33.3119 33.7036L32.4423 33.204L31.7385 33.9186L32.6645 34.8305ZM35.7398 37.126L36.6358 38.0674L37.6249 37.126L36.6358 36.1846L35.7398 37.126ZM34.0067 39.0652L33.1051 40.0012L34.1587 41.0162L35.0424 39.8502L34.0067 39.0652ZM38.2216 30.8582L39.0066 29.8224L38.3744 29.3433L37.6592 29.6865L38.2216 30.8582ZM35.7398 32.2786L35.0145 31.2002L33.4111 32.2786L35.0145 33.357L35.7398 32.2786ZM38.8151 34.8305L37.8891 35.7424L38.5929 36.457L39.4625 35.9574L38.8151 34.8305ZM41.2987 33.6747L41.7437 34.8957L43.5609 34.2335L42.2611 32.8013L41.2987 33.6747ZM30.181 63.798L29.7359 62.5769L27.9188 63.2392L29.2186 64.6714L30.181 63.798ZM32.6645 62.6422L33.5905 61.7303L32.8868 61.0156L32.0171 61.5153L32.6645 62.6422ZM35.7398 65.194L36.4651 66.2724L38.0686 65.194L36.4651 64.1156L35.7398 65.194ZM33.2581 66.6145L32.4731 67.6503L33.1053 68.1294L33.8204 67.7862L33.2581 66.6145ZM40.549 60.6292L41.5881 61.4098L42.5051 60.1891L41.1536 59.4788L40.549 60.6292ZM37.473 58.4075L38.3746 57.4714L37.3209 56.4565L36.4372 57.6224L37.473 58.4075ZM35.7398 60.3466L34.8438 59.4052L33.8547 60.3466L34.8438 61.288L35.7398 60.3466ZM38.8151 62.6422L38.1677 63.7691L39.0374 64.2687L39.7411 63.5541L38.8151 62.6422ZM28.5451 26.6474L28.7669 25.3668L28.1671 25.2629L27.7033 25.6572L28.5451 26.6474ZM31.5594 27.3888L32.488 28.298L33.9598 26.7951L31.9571 26.1515L31.5594 27.3888ZM28.3124 27.9339C29.2814 28.1042 30.2275 28.3406 31.1459 28.6382L31.9472 26.1655C30.9147 25.831 29.8513 25.5653 28.7625 25.3739L28.3124 27.9339ZM31.9697 37.6241C32.4679 36.961 33.0096 36.3323 33.5905 35.7424L31.7385 33.9186C31.0766 34.5907 30.4593 35.3071 29.8916 36.0628L31.9697 37.6241ZM34.8438 36.1846C34.1648 36.8309 33.5382 37.5317 32.9709 38.2802L35.0424 39.8502C35.5249 39.2136 36.0581 38.6173 36.6358 38.0674L34.8438 36.1846ZM36.6358 36.1846C35.6346 35.2317 34.5192 34.3971 33.3119 33.7036L32.0171 35.9574C33.0432 36.5468 33.9918 37.2565 34.8438 38.0674L36.6358 36.1846ZM30.326 37.9939C31.3463 38.5301 32.2814 39.2078 33.1051 40.0012L34.9083 38.1292C33.9096 37.1671 32.7748 36.3445 31.5353 35.693L30.326 37.9939ZM37.6592 29.6865C36.7385 30.1284 35.855 30.6349 35.0145 31.2002L36.4651 33.357C37.2024 32.8612 37.977 32.4171 38.7839 32.0298L37.6592 29.6865ZM39.4625 35.9574C40.1867 35.5414 40.9493 35.1853 41.7437 34.8957L40.8537 32.4536C39.9178 32.7947 39.0199 33.214 38.1677 33.7036L39.4625 35.9574ZM35.0145 33.357C36.0518 34.0547 37.0149 34.8546 37.8891 35.7424L39.7411 33.9186C38.745 32.9071 37.6476 31.9955 36.4651 31.2002L35.0145 33.357ZM42.2611 32.8013C41.2716 31.711 40.1819 30.7132 39.0066 29.8224L37.4366 31.8939C38.4837 32.6875 39.4546 33.5766 40.3363 34.5481L42.2611 32.8013ZM30.626 65.019C31.5618 64.678 32.4598 64.2586 33.3119 63.7691L32.0171 61.5153C31.293 61.9313 30.5303 62.2874 29.7359 62.5769L30.626 65.019ZM35.0145 64.1156C34.2773 64.6114 33.5026 65.0555 32.6957 65.4428L33.8204 67.7862C34.7411 67.3443 35.6246 66.8377 36.4651 66.2724L35.0145 64.1156ZM36.4651 64.1156C35.4278 63.418 34.4648 62.6181 33.5905 61.7303L31.7385 63.5541C32.7346 64.5656 33.832 65.4772 35.0145 66.2724L36.4651 64.1156ZM29.2186 64.6714C30.2081 65.7617 31.2977 66.7595 32.4731 67.6503L34.0431 65.5787C32.996 64.7851 32.0251 63.8961 31.1433 62.9245L29.2186 64.6714ZM36.4372 57.6224C35.9547 58.2591 35.4216 58.8553 34.8438 59.4052L36.6358 61.288C37.3148 60.6418 37.9415 59.9409 38.5087 59.1925L36.4372 57.6224ZM39.7411 63.5541C40.4031 62.8819 41.0203 62.1656 41.5881 61.4098L39.5099 59.8486C39.0118 60.5117 38.4701 61.1403 37.8891 61.7303L39.7411 63.5541ZM34.8438 61.288C35.8451 62.241 36.9605 63.0755 38.1677 63.7691L39.4625 61.5153C38.4365 60.9258 37.4878 60.2161 36.6358 59.4052L34.8438 61.288ZM41.1536 59.4788C40.1333 58.9425 39.1982 58.2648 38.3746 57.4714L36.5713 59.3435C37.5701 60.3055 38.7048 61.1281 39.9444 61.7796L41.1536 59.4788ZM16.9606 29.0773C17.8289 28.7355 18.7254 28.4495 19.6456 28.2239L19.0266 25.6994C17.9923 25.953 16.9845 26.2745 16.0084 26.6587L16.9606 29.0773ZM28.3234 27.9279C29.294 28.096 30.2417 28.3303 31.1618 28.6261L31.9571 26.1515C30.9227 25.819 29.8575 25.5557 28.7669 25.3668L28.3234 27.9279ZM30.6309 26.4795C30.6269 26.4835 30.6229 26.4876 30.6189 26.4917L32.4743 28.3121C32.4788 28.3074 32.4834 28.3028 32.488 28.298L30.6309 26.4795ZM29.3787 27.6445C29.3813 27.6423 29.3841 27.6399 29.3869 27.6375L27.7033 25.6572C27.7011 25.6591 27.6987 25.6611 27.6962 25.6633L29.3787 27.6445ZM29.7521 25.5191L31.6171 27.3296L31.6171 27.3296L29.7521 25.5191ZM29.2014 12.6712L29.2022 10.0719L29.1984 10.0719L29.2014 12.6712ZM27.3066 13.1258L28.4824 15.444V15.444L27.3066 13.1258ZM25.8115 14.3934L23.7184 12.8523L23.7184 12.8523L25.8115 14.3934ZM21.6277 14.3967L19.537 15.9411V15.9411L21.6277 14.3967ZM17.6847 25.5191L15.8197 27.3296C15.8693 27.3807 15.921 27.4298 15.9746 27.4766L17.6847 25.5191ZM16.4268 27.8908L14.6366 29.7752C15.3706 30.4726 16.4427 30.6802 17.384 30.3074L16.4268 27.8908ZM21.7991 11.0825L20.4319 13.2931V13.2931L21.7991 11.0825ZM23.7184 12.8523L21.6277 14.3967C22.1182 15.0607 22.8949 15.4522 23.7204 15.4515C24.546 15.4509 25.3221 15.0581 25.8115 14.3934L23.7184 12.8523ZM25.6383 11.0837L24.2748 8.87081L24.2748 8.87081L25.6383 11.0837ZM26.1309 10.8076L27.3066 13.1258H27.3066L26.1309 10.8076ZM29.2002 10.0719V7.47265L29.1979 7.47265L29.2002 10.0719ZM8.60528 6.53777L6.76733 8.37573V8.37573L8.60528 6.53777ZM5.15912 3.0916L6.99707 1.25364V1.25364L5.15912 3.0916ZM6.53758 1.71313L4.69963 3.55109V3.55109L6.53758 1.71313ZM9.98375 5.1593L11.8217 3.32135H11.8217L9.98375 5.1593ZM37.847 5.1593L36.0091 3.32135L36.009 3.32135L37.847 5.1593ZM41.2932 1.71313L43.1311 3.55109L43.1311 3.55109L41.2932 1.71313ZM42.6716 3.0916L44.5096 4.92956L44.5096 4.92956L42.6716 3.0916ZM39.2255 6.53777L37.3875 4.69982L37.3875 4.69982L39.2255 6.53777ZM30.9307 36.8435L33.0088 38.4047L34.8429 35.9633L32.1399 34.5426L30.9307 36.8435ZM32.6645 34.8305L31.3697 37.0843L33.109 38.0835L34.5165 36.6543L32.6645 34.8305ZM35.7398 37.126L33.9478 35.2432L31.9696 37.126L33.9478 39.0088L35.7398 37.126ZM34.0067 39.0652L35.8099 37.1932L33.7026 35.1632L31.9352 37.4952L34.0067 39.0652ZM38.2216 30.8582L36.6516 32.9297L37.916 33.888L39.3463 33.2015L38.2216 30.8582ZM35.7398 32.2786L37.1904 34.4355L40.3974 32.2786L37.1904 30.1218L35.7398 32.2786ZM38.8151 34.8305L40.6671 33.0067L39.2597 31.5774L37.5203 32.5767L38.8151 34.8305ZM41.2987 33.6747L40.4086 31.2326L36.7743 32.5571L39.3739 35.4215L41.2987 33.6747ZM30.181 63.798L31.071 66.2401L34.7053 64.9155L32.1057 62.0511L30.181 63.798ZM32.6645 62.6422L30.8125 64.466L32.22 65.8952L33.9593 64.896L32.6645 62.6422ZM35.7398 65.194L34.2892 63.0372L31.0823 65.194L34.2892 67.3509L35.7398 65.194ZM33.2581 66.6145L34.8281 64.543L33.5637 63.5847L32.1334 64.2711L33.2581 66.6145ZM40.549 60.6292L38.4708 59.068L36.6367 61.5094L39.3397 62.93L40.549 60.6292ZM37.473 58.4075L35.6697 60.2795L37.7771 62.3094L39.5445 59.9775L37.473 58.4075ZM35.7398 60.3466L37.5318 62.2294L39.51 60.3466L37.5318 58.4638L35.7398 60.3466ZM38.8151 62.6422L40.1099 60.3884L38.3706 59.3891L36.9631 60.8184L38.8151 62.6422ZM19.3361 26.9617L17.6261 28.9192L18.6432 29.8078L19.955 29.4862L19.3361 26.9617ZM16.4845 27.868L17.4384 30.2859L15.5324 25.4494L16.4845 27.868ZM28.5451 26.6474L28.1016 29.2085L29.3012 29.4162L30.2288 28.6277L28.5451 26.6474ZM31.5594 27.3888L29.7023 25.5702L26.7588 28.576L30.7641 29.8633L31.5594 27.3888ZM31.6171 27.3296C34.0663 24.8068 36.0649 21.3529 36.0649 17.0104H30.8664C30.8664 19.6369 29.6829 21.8589 27.8871 23.7085L31.6171 27.3296ZM36.0649 17.0104C36.0649 13.171 32.9871 10.073 29.2022 10.0719L29.2007 15.2705C30.0742 15.2707 30.8664 16.0004 30.8664 17.0104H36.0649ZM29.1984 10.0719C28.1328 10.0732 27.0823 10.3251 26.1309 10.8077L28.4824 15.444C28.7076 15.3297 28.9548 15.2707 29.2044 15.2705L29.1984 10.0719ZM26.1309 10.8077C25.179 11.2905 24.3527 11.9907 23.7184 12.8523L27.9047 15.9345C28.0584 15.7256 28.2568 15.5583 28.4824 15.444L26.1309 10.8077ZM23.7184 12.8523H23.7184L23.7225 18.0508C25.3735 18.0495 26.9258 17.264 27.9047 15.9345L23.7184 12.8523ZM23.7184 12.8523L23.7184 12.8523L19.537 15.9411C20.518 17.2691 22.0715 18.0521 23.7225 18.0508L23.7184 12.8523ZM23.7184 12.8523C22.47 11.1623 20.4813 10.0719 18.2365 10.0719V15.2705C18.7517 15.2705 19.2202 15.5122 19.537 15.9411L23.7184 12.8523ZM18.2365 10.0719C14.4507 10.0719 11.3719 13.1704 11.3719 17.0104H16.5704C16.5704 16.0002 17.3629 15.2705 18.2365 15.2705V10.0719ZM11.3719 17.0104C11.3719 21.3529 13.3704 24.8068 15.8197 27.3296L19.5496 23.7085C17.7539 21.8589 16.5704 19.6369 16.5704 17.0104H11.3719ZM18.2171 26.0064C15.8439 23.7517 13.9712 20.7376 13.9712 17.0104H8.77262C8.77262 22.6242 11.6211 26.9104 14.6366 29.7752L18.2171 26.0064ZM13.9712 17.0104C13.9712 14.5853 15.9068 12.6712 18.2365 12.6712V7.47265C12.9855 7.47265 8.77262 11.7647 8.77262 17.0104H13.9712ZM18.2365 12.6712C19.0459 12.6712 19.7935 12.8983 20.4319 13.2931L23.1662 8.87182C21.7312 7.98429 20.0407 7.47265 18.2365 7.47265V12.6712ZM20.4319 13.2931C20.8937 13.5787 21.3005 13.9537 21.6277 14.3967L25.8091 11.3079C25.0927 10.338 24.1964 9.50892 23.1662 8.87182L20.4319 13.2931ZM25.8115 14.3934C26.1359 13.9527 26.5405 13.5809 27.0019 13.2966L24.2748 8.87081C23.2453 9.50516 22.3453 10.3332 21.6252 11.3112L25.8115 14.3934ZM27.0019 13.2966C27.1009 13.2356 27.2026 13.1786 27.3066 13.1258L24.9551 8.4895C24.7227 8.60739 24.4957 8.73464 24.2748 8.87081L27.0019 13.2966ZM27.3066 13.1258C27.8953 12.8272 28.5446 12.6718 29.2025 12.6712L29.1979 7.47265C27.7235 7.47396 26.2703 7.82244 24.9551 8.4895L27.3066 13.1258ZM29.2002 12.6712C31.53 12.6712 33.4656 14.5853 33.4656 17.0104H38.6641C38.6641 11.7647 34.4512 7.47265 29.2002 7.47265V12.6712ZM6.76733 8.37573C8.16305 9.77146 10.426 9.77146 11.8217 8.37573L8.14579 4.69982C8.78022 4.06539 9.80882 4.06539 10.4432 4.69982L6.76733 8.37573ZM3.32116 4.92956L6.76733 8.37573L10.4432 4.69982L6.99707 1.25364L3.32116 4.92956ZM3.32116 -0.124823C1.92543 1.27091 1.92543 3.53383 3.32116 4.92956L6.99707 1.25364C7.6315 1.88807 7.63149 2.91667 6.99707 3.55109L3.32116 -0.124823ZM8.37554 -0.124824C6.97981 -1.52055 4.71689 -1.52055 3.32116 -0.124823L6.99707 3.55109C6.36265 4.18551 5.33405 4.18551 4.69963 3.55109L8.37554 -0.124824ZM11.8217 3.32135L8.37554 -0.124824L4.69963 3.55109L8.14579 6.99726L11.8217 3.32135ZM11.8217 8.37573C13.2174 6.98 13.2174 4.71708 11.8217 3.32135L8.14579 6.99726C7.51137 6.36284 7.51137 5.33424 8.14579 4.69982L11.8217 8.37573ZM20.1443 6.17325C20.1443 8.14711 21.7444 9.74724 23.7183 9.74724V4.54871C24.6155 4.54871 25.3428 5.27605 25.3428 6.17325H20.1443ZM20.1443 0.974724V6.17325H25.3428V0.974724H20.1443ZM23.7183 -2.59926C21.7444 -2.59926 20.1443 -0.999135 20.1443 0.974724H25.3428C25.3428 1.87193 24.6155 2.59926 23.7183 2.59926V-2.59926ZM27.2922 0.974724C27.2922 -0.999135 25.6921 -2.59926 23.7183 -2.59926V2.59926C22.8211 2.59926 22.0937 1.87193 22.0937 0.974724H27.2922ZM27.2922 6.17325V0.974724H22.0937V6.17325H27.2922ZM23.7183 9.74724C25.6921 9.74724 27.2922 8.14711 27.2922 6.17325H22.0937C22.0937 5.27605 22.8211 4.54871 23.7183 4.54871V9.74724ZM36.009 3.32135C34.6133 4.71708 34.6133 6.98 36.009 8.37573L39.685 4.69982C40.3194 5.33424 40.3194 6.36284 39.685 6.99726L36.009 3.32135ZM39.4552 -0.124824L36.0091 3.32135L39.685 6.99726L43.1311 3.55109L39.4552 -0.124824ZM44.5096 -0.124824C43.1139 -1.52055 40.851 -1.52055 39.4552 -0.124824L43.1311 3.55109C42.4967 4.18551 41.4681 4.18551 40.8337 3.55109L44.5096 -0.124824ZM44.5096 4.92956C45.9053 3.53383 45.9053 1.27091 44.5096 -0.124824L40.8337 3.55109C40.1993 2.91667 40.1993 1.88807 40.8337 1.25364L44.5096 4.92956ZM41.0634 8.37573L44.5096 4.92956L40.8337 1.25364L37.3875 4.69982L41.0634 8.37573ZM36.009 8.37573C37.4048 9.77146 39.6677 9.77146 41.0634 8.37573L37.3875 4.69982C38.0219 4.06539 39.0505 4.06539 39.685 4.69982L36.009 8.37573ZM0.974724 10.3973C-0.999134 10.3973 -2.59926 11.9974 -2.59926 13.9713H2.59926C2.59926 14.8685 1.87193 15.5958 0.974724 15.5958V10.3973ZM6.17325 10.3973H0.974724V15.5958H6.17325V10.3973ZM9.74724 13.9713C9.74724 11.9974 8.14711 10.3973 6.17325 10.3973V15.5958C5.27604 15.5958 4.54871 14.8685 4.54871 13.9713H9.74724ZM6.17325 17.5453C8.14711 17.5453 9.74724 15.9451 9.74724 13.9713H4.54871C4.54871 13.0741 5.27604 12.3467 6.17325 12.3467V17.5453ZM0.974724 17.5453H6.17325V12.3467H0.974724V17.5453ZM-2.59926 13.9713C-2.59926 15.9451 -0.999134 17.5453 0.974724 17.5453V12.3467C1.87193 12.3467 2.59926 13.0741 2.59926 13.9713H-2.59926ZM41.9131 10.3973C39.9392 10.3973 38.3391 11.9974 38.3391 13.9713H43.5376C43.5376 14.8685 42.8103 15.5958 41.9131 15.5958V10.3973ZM46.4618 10.3973H41.9131V15.5958H46.4618V10.3973ZM50.0358 13.9713C50.0358 11.9974 48.4357 10.3973 46.4618 10.3973V15.5958C45.5646 15.5958 44.8373 14.8685 44.8373 13.9713H50.0358ZM46.4618 17.5453C48.4357 17.5453 50.0358 15.9451 50.0358 13.9713H44.8373C44.8373 13.0741 45.5646 12.3467 46.4618 12.3467V17.5453ZM41.9131 17.5453H46.4618V12.3467H41.9131V17.5453ZM38.3391 13.9713C38.3391 15.9451 39.9392 17.5453 41.9131 17.5453V12.3467C42.8103 12.3467 43.5376 13.0741 43.5376 13.9713H38.3391ZM24.693 73.7542C38.51 73.7542 49.7109 62.5533 49.7109 48.7363H44.5123C44.5123 59.6823 35.6389 68.5557 24.693 68.5557V73.7542ZM-0.32495 48.7363C-0.32495 62.5533 10.8759 73.7542 24.693 73.7542V68.5557C13.747 68.5557 4.87358 59.6823 4.87358 48.7363H-0.32495ZM24.693 59.5638C18.7131 59.5638 13.8655 54.7162 13.8655 48.7363H8.66701C8.66701 57.5872 15.8421 64.7623 24.693 64.7623V59.5638ZM35.5204 48.7363C35.5204 54.7162 30.6728 59.5638 24.693 59.5638V64.7623C33.5438 64.7623 40.7189 57.5872 40.7189 48.7363H35.5204ZM13.8655 48.7363C13.8655 42.7565 18.7131 37.9089 24.693 37.9089V32.7104C15.8421 32.7104 8.66701 39.8854 8.66701 48.7363H13.8655ZM7.47284 48.7363C7.47284 39.2259 15.1826 31.5162 24.693 31.5162V26.3177C12.3115 26.3177 2.27431 36.3548 2.27431 48.7363H7.47284ZM24.693 65.9565C15.1826 65.9565 7.47284 58.2467 7.47284 48.7363H2.27431C2.27431 61.1178 12.3115 71.155 24.693 71.155V65.9565ZM6.06775 48.7363C6.06775 59.0227 14.4065 67.3615 24.693 67.3615V62.163C17.2776 62.163 11.2663 56.1517 11.2663 48.7363H6.06775ZM24.693 30.1111C14.4065 30.1111 6.06775 38.4499 6.06775 48.7363H11.2663C11.2663 41.321 17.2776 35.3096 24.693 35.3096V30.1111ZM46.7867 73.7542C60.6037 73.7542 71.8046 62.5533 71.8046 48.7363H66.6061C66.6061 59.6823 57.7326 68.5557 46.7867 68.5557V73.7542ZM46.7867 23.7184C32.9697 23.7184 21.7688 34.9193 21.7688 48.7363H26.9673C26.9673 37.7904 35.8408 28.9169 46.7867 28.9169V23.7184ZM71.8046 48.7363C71.8046 34.9193 60.6037 23.7184 46.7867 23.7184V28.9169C57.7326 28.9169 66.6061 37.7904 66.6061 48.7363H71.8046ZM57.6141 48.7363C57.6141 54.7162 52.7665 59.5638 46.7867 59.5638V64.7623C55.6376 64.7623 62.8126 57.5872 62.8126 48.7363H57.6141ZM46.7867 37.9089C52.7665 37.9089 57.6141 42.7565 57.6141 48.7363H62.8126C62.8126 39.8854 55.6376 32.7104 46.7867 32.7104V37.9089ZM35.9593 48.7363C35.9593 42.7565 40.8069 37.9089 46.7867 37.9089V32.7104C37.9358 32.7104 30.7607 39.8854 30.7607 48.7363H35.9593ZM64.0068 48.7363C64.0068 58.2467 56.2971 65.9565 46.7867 65.9565V71.155C59.1682 71.155 69.2053 61.1178 69.2053 48.7363H64.0068ZM46.7867 31.5162C56.2971 31.5162 64.0068 39.2259 64.0068 48.7363H69.2053C69.2053 36.3548 59.1682 26.3177 46.7867 26.3177V31.5162ZM65.4119 48.7363C65.4119 38.4499 57.0731 30.1111 46.7867 30.1111V35.3096C54.202 35.3096 60.2134 41.321 60.2134 48.7363H65.4119ZM46.7867 67.3615C57.0731 67.3615 65.4119 59.0227 65.4119 48.7363H60.2134C60.2134 56.1517 54.202 62.163 46.7867 62.163V67.3615ZM24.693 37.9089C26.5133 37.9089 28.2216 38.356 29.7214 39.1443L32.1399 34.5426C29.9122 33.3718 27.376 32.7104 24.693 32.7104V37.9089ZM33.9593 32.5767C31.228 31.0075 28.0612 30.1111 24.693 30.1111V35.3096C27.1286 35.3096 29.4054 35.9558 31.3697 37.0843L33.9593 32.5767ZM43.3182 48.7363C43.3182 43.4269 41.0931 38.6328 37.5318 35.2432L33.9478 39.0088C36.5211 41.4579 38.1196 44.9083 38.1196 48.7363H43.3182ZM32.2034 40.9372C34.2514 42.91 35.5204 45.6727 35.5204 48.7363H40.7189C40.7189 44.2028 38.833 40.1052 35.8099 37.1932L32.2034 40.9372ZM31.9352 37.4952C29.5674 40.6192 28.1615 44.5173 28.1615 48.7363H33.36C33.36 45.6898 34.3715 42.887 36.0782 40.6352L31.9352 37.4952ZM29.5666 48.7363C29.5666 44.8562 30.8467 41.2827 33.0088 38.4047L28.8525 35.2822C26.0373 39.0296 24.368 43.6918 24.368 48.7363H29.5666ZM37.1904 30.1218C33.6186 27.7196 29.3156 26.3177 24.693 26.3177V31.5162C28.2501 31.5162 31.5482 32.5919 34.2892 34.4355L37.1904 30.1218ZM47.1116 48.7363C47.1116 42.6087 44.6498 37.0509 40.6671 33.0067L36.9631 36.6543C40.027 39.7655 41.9131 44.0281 41.9131 48.7363H47.1116ZM39.3739 35.4215C42.5688 38.9418 44.5123 43.6091 44.5123 48.7363H49.7109C49.7109 42.2677 47.2525 36.3673 43.2235 31.9278L39.3739 35.4215ZM46.7867 30.1111C44.5509 30.1111 42.4017 30.5062 40.4086 31.2326L42.1888 36.1168C43.6196 35.5953 45.1669 35.3096 46.7867 35.3096V30.1111ZM37.5203 32.5767C36.2225 33.3223 35.0237 34.2193 33.9478 35.2432L37.5318 39.0088C38.3092 38.269 39.1745 37.6217 40.1099 37.0843L37.5203 32.5767ZM34.5165 36.6543C35.3299 35.8283 36.2257 35.0843 37.1904 34.4355L34.2892 30.1218C33.0341 30.9659 31.8695 31.9333 30.8125 33.0067L34.5165 36.6543ZM39.3463 33.2015C41.5952 32.1221 44.1165 31.5162 46.7867 31.5162V26.3177C43.3214 26.3177 40.0328 27.1057 37.0969 28.5148L39.3463 33.2015ZM21.7688 48.7363C21.7688 55.2049 24.2271 61.1054 28.2562 65.5448L32.1057 62.0511C28.9108 58.5308 26.9673 53.8636 26.9673 48.7363H21.7688ZM34.5165 60.8184C31.4527 57.7072 29.5666 53.4446 29.5666 48.7363H24.368C24.368 54.864 26.8299 60.4218 30.8125 64.466L34.5165 60.8184ZM46.7867 65.9565C43.2295 65.9565 39.9315 64.8807 37.1904 63.0372L34.2892 67.3509C37.861 69.7531 42.1641 71.155 46.7867 71.155V65.9565ZM31.6881 68.686C35.8842 71.8663 41.1187 73.7542 46.7867 73.7542V68.5557C42.2912 68.5557 38.1521 67.0622 34.8281 64.543L31.6881 68.686ZM32.1334 64.2711C29.8844 65.3505 27.3631 65.9565 24.693 65.9565V71.155C28.1583 71.155 31.4469 70.3669 34.3828 68.9578L32.1334 64.2711ZM24.693 67.3615C26.9287 67.3615 29.078 66.9665 31.071 66.2401L29.2909 61.3558C27.86 61.8773 26.3128 62.163 24.693 62.163V67.3615ZM39.3397 62.93C41.5675 64.1009 44.1037 64.7623 46.7867 64.7623V59.5638C44.9663 59.5638 43.258 59.1166 41.7582 58.3284L39.3397 62.93ZM30.7607 48.7363C30.7607 53.2699 32.6466 57.3674 35.6697 60.2795L39.2762 56.5354C37.2282 54.5627 35.9593 51.7999 35.9593 48.7363H30.7607ZM37.5318 58.4638C34.9586 56.0147 33.36 52.5644 33.36 48.7363H28.1615C28.1615 54.0458 30.3865 58.8399 33.9478 62.2294L37.5318 58.4638ZM46.7867 62.163C44.3511 62.163 42.0743 61.5168 40.1099 60.3884L37.5203 64.896C40.2516 66.4651 43.4184 67.3615 46.7867 67.3615V62.163ZM33.9593 64.896C35.2572 64.1504 36.456 63.2534 37.5318 62.2294L33.9478 58.4638C33.1705 59.2037 32.3051 59.851 31.3697 60.3884L33.9593 64.896ZM39.5445 59.9775C41.9122 56.8535 43.3182 52.9554 43.3182 48.7363H38.1196C38.1196 51.7828 37.1081 54.5856 35.4015 56.8374L39.5445 59.9775ZM41.9131 48.7363C41.9131 52.6164 40.6329 56.19 38.4708 59.068L42.6272 62.1904C45.4424 58.4431 47.1116 53.7809 47.1116 48.7363H41.9131ZM36.9631 60.8184C36.1498 61.6443 35.2539 62.3884 34.2892 63.0372L37.1904 67.3509C38.4455 66.5067 39.6101 65.5393 40.6671 64.466L36.9631 60.8184ZM24.693 23.7184C22.6365 23.7184 20.6346 23.9671 18.7171 24.4372L19.955 29.4862C21.4705 29.1146 23.0569 28.9169 24.693 28.9169V23.7184ZM15.5324 25.4494C6.2512 29.103 -0.32495 38.1485 -0.32495 48.7363H4.87358C4.87358 40.3559 10.0759 33.1842 17.4366 30.2866L15.5324 25.4494ZM17.384 30.3074C17.4021 30.3002 17.4203 30.2931 17.4384 30.2859L15.5306 25.4501C15.5103 25.4581 15.49 25.4662 15.4697 25.4742L17.384 30.3074ZM15.9746 27.4766L17.6261 28.9192L21.0461 25.0041L19.3947 23.5615L15.9746 27.4766ZM27.8871 23.7085C27.5562 24.0495 27.2118 24.3692 26.8615 24.6671L30.2288 28.6277C30.6966 28.2299 31.163 27.7973 31.6171 27.3296L27.8871 23.7085ZM33.4166 29.2073C36.217 26.3476 38.6641 22.2556 38.6641 17.0104H33.4656C33.4656 20.5219 31.8496 23.3774 29.7023 25.5702L33.4166 29.2073ZM24.693 28.9169C25.8572 28.9169 26.9959 29.017 28.1016 29.2085L28.9887 24.0862C27.5913 23.8442 26.1558 23.7184 24.693 23.7184V28.9169ZM30.7641 29.8633C32.9074 30.5522 34.8932 31.597 36.6516 32.9297L39.7916 28.7866C37.5742 27.1061 35.0661 25.7856 32.3548 24.9142L30.7641 29.8633Z" fill="#FFF0F8" mask="url(#path-1-inside-1_78_93)"/>
</svg>
