<svg width="77" height="75" viewBox="0 0 77 75" fill="none" xmlns="http://www.w3.org/2000/svg">
<path d="M19.2551 41.0136L19.2486 42.1217C19.2485 42.1506 19.2576 42.1788 19.2747 42.2024C19.2918 42.2261 19.3159 42.2439 19.3437 42.2534C21.8325 43.0878 23.1974 45.746 21.8546 48.1852C19.392 52.6595 12.7562 49.7496 14.245 45.0042C14.6665 43.6588 15.6117 42.7405 17.0805 42.2495C17.1046 42.2411 17.1254 42.2254 17.1401 42.2046C17.1549 42.1838 17.1627 42.1589 17.1627 42.1335V39.9315C17.1626 39.9115 17.1573 39.8917 17.1473 39.8739C17.1373 39.8561 17.1228 39.841 17.1053 39.8298L15.6856 38.9225C15.6495 38.8998 15.6069 38.891 15.5656 38.8977C14.3988 39.1011 13.2816 38.3215 13.5553 37.0334C13.5595 37.0137 13.5595 36.9933 13.5555 36.9736C13.5515 36.9539 13.5434 36.9352 13.5319 36.9187L12.7901 35.851C12.7786 35.8342 12.7638 35.8202 12.7467 35.8099C12.7296 35.7995 12.7106 35.7931 12.691 35.791C10.3509 35.5394 8.59218 33.6216 8.86074 31.2281C9.15016 28.6468 11.4799 27.0445 14.0221 27.6286C14.072 27.6402 14.1241 27.639 14.1735 27.6251C14.223 27.6112 14.2682 27.585 14.305 27.549C14.8464 27.0197 15.4231 26.5504 16.035 26.1411C16.0599 26.1245 16.0806 26.1023 16.0951 26.0762C16.1096 26.0501 16.1176 26.0209 16.1184 25.9911C16.1718 24.1268 17.9279 23.2925 19.4871 24.2676C19.5185 24.2871 19.5546 24.2989 19.5928 24.3021C19.631 24.3052 19.6702 24.2997 19.7075 24.2859L21.2602 23.7018C21.2891 23.6906 21.3142 23.6719 21.3326 23.6479C21.351 23.6239 21.3621 23.5956 21.3645 23.5663C21.6461 19.9733 26.1151 19.002 28.0824 21.9445C28.1004 21.971 28.1246 21.9921 28.1523 22.0052C28.18 22.0184 28.21 22.0231 28.2388 22.0188L30.004 21.7567C30.0413 21.7508 30.0805 21.7308 30.1161 21.6994C30.7202 21.1544 31.3807 21.0819 32.0978 21.4817C32.1384 21.5045 32.1808 21.515 32.219 21.5116L33.7899 21.3748C33.8041 21.3732 33.8172 21.3665 33.8268 21.3559C33.8364 21.3454 33.8419 21.3317 33.8421 21.3174C33.8643 20.4152 33.6609 19.135 34.9581 19.135C36.4825 19.135 38.007 19.135 39.5314 19.135C41.0984 19.135 41.9889 19.5822 42.2144 21.2809C42.2178 21.305 42.229 21.3273 42.2463 21.3441C42.2636 21.3609 42.2859 21.3713 42.3096 21.3735L43.814 21.5012C43.8548 21.5046 43.898 21.4946 43.9379 21.4725C44.5915 21.1066 45.2464 21.1714 45.9026 21.6668C45.9773 21.7233 46.0634 21.7589 46.1607 21.7737L47.716 22.011C47.7695 22.0191 47.824 22.0122 47.8732 21.9909C47.9224 21.9697 47.9642 21.935 47.9937 21.891C49.9792 18.946 54.3362 20.0333 54.6803 23.5702C54.6831 23.5987 54.694 23.626 54.7117 23.6488C54.7295 23.6717 54.7534 23.6891 54.7807 23.6992L56.3829 24.3042C56.4125 24.3153 56.4442 24.319 56.4749 24.3149C56.5057 24.3108 56.5346 24.299 56.5589 24.2807C58.0725 23.1439 59.8729 24.2442 59.9303 26.0694C59.9311 26.0896 59.9364 26.1094 59.9459 26.1273C59.9554 26.1451 59.9688 26.1605 59.9851 26.1723C60.61 26.6199 61.2066 27.1036 61.775 27.6234C61.7895 27.6367 61.8072 27.6462 61.8265 27.6512C61.8458 27.6562 61.8661 27.6565 61.8858 27.652C67.8594 26.2819 69.3808 35.0518 63.3368 35.8066C63.3164 35.8091 63.2968 35.8159 63.2795 35.8264C63.2621 35.837 63.2475 35.8512 63.2365 35.8679L62.5338 36.9096C62.5111 36.9432 62.5013 36.9853 62.5064 37.0282C62.6511 38.354 61.7398 39.0906 60.4974 38.8899C60.4404 38.8806 60.3772 38.8955 60.3201 38.9316L58.9447 39.8181C58.9251 39.8305 58.909 39.8469 58.8979 39.8659C58.8867 39.8848 58.8808 39.9056 58.8808 39.9263V41.1596C58.8808 41.1909 58.8894 41.2216 58.9058 41.2483C58.9221 41.275 58.9455 41.2966 58.9734 41.3108C61.2548 42.4724 62.1948 45.2167 61.9458 47.6533C61.5482 51.5305 58.4415 54.104 55.1092 55.5498C54.1158 55.9813 53.374 54.9214 53.8616 53.9762C54.4613 52.8107 54.9828 51.3975 54.6516 50.0573C54.5473 49.6349 54.3887 49.1134 54.1758 48.4929C53.2463 45.7877 53.9111 42.4959 56.7284 41.2821C56.7456 41.275 56.7607 41.2635 56.7724 41.249C56.784 41.2344 56.7917 41.2171 56.7949 41.1987C56.8562 40.8793 56.7271 40.9393 56.5498 41.0136C55.2905 41.5359 53.9994 41.9796 52.6765 42.3447C52.652 42.3511 52.6299 42.365 52.6134 42.3843C52.5968 42.4036 52.5866 42.4276 52.584 42.4529C52.1186 46.6873 46.7812 47.609 44.7292 43.9326C44.7091 43.8964 44.6788 43.8669 44.6421 43.8475C44.6053 43.8281 44.5636 43.8196 44.5219 43.823C42.7315 43.989 40.9498 44.0929 39.1768 44.1346C39.1468 44.1353 39.1183 44.1477 39.0974 44.1691C39.0764 44.1906 39.0647 44.2194 39.0647 44.2494V46.1971C39.0647 46.2935 39.1021 46.3109 39.1768 46.2492C40.3201 45.3001 41.7399 44.9455 43.0279 45.8751C45.1712 47.4212 44.1778 50.4562 42.8793 52.125C41.6199 53.7433 40.0877 54.8927 38.2825 55.5732C37.3438 55.9278 35.0024 54.0649 34.2658 53.3974C32.6792 51.9607 31.3012 49.5058 31.927 47.3274C32.5788 45.0602 35.1745 44.6731 36.8471 46.1632C36.9349 46.2414 36.9788 46.2218 36.9788 46.1045V44.2507C36.9788 44.2209 36.9673 44.1923 36.9466 44.1709C36.9259 44.1495 36.8977 44.1369 36.868 44.1359C35.0193 44.0855 33.212 43.9808 31.4459 43.8217C31.4268 43.8199 31.4074 43.824 31.3904 43.8335C31.3735 43.843 31.3596 43.8576 31.3507 43.8752C29.4004 47.6689 23.9406 46.6703 23.4517 42.4463C23.4494 42.427 23.4418 42.4089 23.4297 42.3941C23.4177 42.3793 23.4018 42.3684 23.3839 42.3629C22.0089 41.9535 20.6535 41.4894 19.3177 40.9706C19.3105 40.968 19.3029 40.9672 19.2954 40.9682C19.2879 40.9691 19.2808 40.9718 19.2747 40.976C19.2685 40.9803 19.2635 40.9859 19.2601 40.9924C19.2567 40.999 19.255 41.0062 19.2551 41.0136ZM40.1076 21.2991C40.1076 21.2889 40.1056 21.2787 40.1017 21.2692C40.0978 21.2597 40.092 21.2511 40.0847 21.2438C40.0775 21.2366 40.0688 21.2308 40.0594 21.2269C40.0499 21.2229 40.0397 21.2209 40.0294 21.2209H36.0141C35.9933 21.2209 35.9734 21.2292 35.9587 21.2438C35.9441 21.2585 35.9358 21.2784 35.9358 21.2991V23.2286C35.9358 23.2494 35.9441 23.2692 35.9587 23.2839C35.9734 23.2986 35.9933 23.3068 36.0141 23.3068H40.0294C40.0397 23.3068 40.0499 23.3048 40.0594 23.3009C40.0688 23.2969 40.0775 23.2912 40.0847 23.2839C40.092 23.2767 40.0978 23.268 40.1017 23.2585C40.1056 23.249 40.1076 23.2389 40.1076 23.2286V21.2991ZM26.5388 23.8283C26.5388 23.4158 26.3749 23.0202 26.0833 22.7285C25.7916 22.4369 25.396 22.273 24.9835 22.273C24.7793 22.273 24.577 22.3132 24.3883 22.3914C24.1996 22.4696 24.0282 22.5841 23.8837 22.7285C23.7393 22.873 23.6248 23.0444 23.5466 23.2331C23.4684 23.4218 23.4282 23.6241 23.4282 23.8283C23.4282 24.2408 23.5921 24.6364 23.8837 24.9281C24.1754 25.2197 24.571 25.3836 24.9835 25.3836C25.396 25.3836 25.7916 25.2197 26.0833 24.9281C26.3749 24.6364 26.5388 24.2408 26.5388 23.8283ZM52.6127 23.827C52.6127 23.4149 52.4489 23.0196 52.1575 22.7282C51.8661 22.4367 51.4708 22.273 51.0587 22.273C50.6465 22.273 50.2513 22.4367 49.9598 22.7282C49.6684 23.0196 49.5047 23.4149 49.5047 23.827C49.5047 24.2391 49.6684 24.6344 49.9598 24.9258C50.2513 25.2173 50.6465 25.381 51.0587 25.381C51.4708 25.381 51.8661 25.2173 52.1575 24.9258C52.4489 24.6344 52.6127 24.2391 52.6127 23.827ZM32.5475 23.6693C31.8214 24.4749 30.9831 24.5597 30.1135 23.9091C30.0962 23.8963 30.077 23.887 30.0571 23.8816C30.0372 23.8762 30.0169 23.875 29.9975 23.8778L28.7421 24.0851C28.7018 24.0919 28.6649 24.1117 28.6367 24.1416C28.6085 24.1714 28.5906 24.2097 28.5856 24.2507C28.1671 27.7146 23.818 28.579 21.8924 25.7721C21.8812 25.756 21.8653 25.7439 21.8474 25.7378C21.8295 25.7317 21.8105 25.7318 21.7934 25.7382L20.3411 26.2675C20.3181 26.2761 20.2971 26.2901 20.2793 26.3085C20.2616 26.3269 20.2475 26.3494 20.2381 26.3744C19.7201 27.7546 18.7618 28.2404 17.3634 27.8319C17.3425 27.8255 17.321 27.8236 17.3008 27.8263C17.2806 27.8291 17.2623 27.8363 17.2474 27.8476L16.0884 28.7289C16.0779 28.737 16.0693 28.7472 16.0631 28.759C16.0568 28.7709 16.0531 28.784 16.0521 28.7976C16.0511 28.8113 16.0529 28.8252 16.0574 28.8385C16.0618 28.8517 16.0688 28.8641 16.078 28.8749C17.8875 30.9452 17.3426 33.825 15.065 35.2369C15.0456 35.2492 15.0313 35.268 15.0248 35.2899C15.0183 35.3117 15.0201 35.3351 15.0298 35.3556C15.1793 35.6702 15.3662 35.8657 15.5904 35.9422C16.5069 36.2512 16.3596 37.0621 17.1992 37.3958C17.2163 37.4026 17.2354 37.4033 17.2533 37.3979C17.2712 37.3925 17.287 37.3812 17.2982 37.3659C17.6698 36.8652 18.3308 36.684 18.8288 37.1051C19.1356 37.365 19.2712 37.7787 19.2355 38.3462C19.2242 38.527 19.3007 38.6552 19.465 38.7308C20.7678 39.3262 22.1754 39.8381 23.6876 40.2666C23.7264 40.2778 23.7678 40.2757 23.8053 40.2605C23.8429 40.2454 23.8744 40.2182 23.8949 40.1831C25.1334 38.0412 27.5765 37.2355 29.7016 38.5144C30.7663 39.155 31.4437 40.1949 31.734 41.6341C31.7401 41.665 31.7561 41.6931 31.7796 41.7143C31.803 41.7354 31.8328 41.7485 31.8644 41.7515C33.554 41.9149 35.2279 42.0135 36.8862 42.0474C36.9096 42.0478 36.9324 42.0399 36.9505 42.0251C36.9687 42.0103 36.981 41.9896 36.9853 41.9666C37.2174 40.7463 38.7557 40.7176 39.0582 41.9757C39.0626 41.9939 39.0729 42.01 39.0874 42.0213C39.1018 42.0327 39.1196 42.0387 39.1377 42.0383C40.8125 42.0157 42.4977 41.9197 44.1934 41.7502C44.2256 41.7469 44.2558 41.7331 44.2793 41.711C44.3029 41.6888 44.3185 41.6595 44.3238 41.6276C44.973 37.5262 50.1343 36.4715 52.2007 40.2301C52.2097 40.2464 52.2239 40.2593 52.2409 40.2666C52.2579 40.2739 52.2768 40.2753 52.2946 40.2705C53.7495 39.8898 55.1983 39.3557 56.6411 38.6682C56.6976 38.6413 56.7442 38.5971 56.7742 38.5421C56.8042 38.4871 56.816 38.424 56.808 38.3619C56.6437 37.1208 57.9213 36.2108 58.7192 37.3763C58.7371 37.4022 58.7644 37.42 58.7953 37.4261C58.8262 37.4322 58.8583 37.426 58.8847 37.4089C59.208 37.2003 59.371 37.0777 59.5653 36.6997C59.9551 35.9448 60.6395 36.0817 61.0111 35.3738C61.0238 35.3497 61.0267 35.3215 61.0192 35.2951C61.0117 35.2686 60.9943 35.246 60.9706 35.2317C58.6657 33.8615 58.2329 31.0064 59.9146 28.9257C59.9263 28.9115 59.935 28.8951 59.9403 28.8775C59.9455 28.8599 59.9473 28.8414 59.9453 28.8232C59.9434 28.805 59.9378 28.7874 59.929 28.7714C59.9201 28.7554 59.9082 28.7414 59.8938 28.7302L58.7948 27.8841C58.7789 27.8719 58.7602 27.8636 58.7401 27.8597C58.72 27.8559 58.699 27.8567 58.6788 27.8619C57.2412 28.2278 56.2808 27.732 55.7976 26.3744C55.7903 26.354 55.7792 26.3356 55.7653 26.3205C55.7513 26.3054 55.7348 26.294 55.7168 26.2871L54.2332 25.7226C54.2152 25.716 54.1955 25.7159 54.177 25.7222C54.1585 25.7286 54.1425 25.7412 54.1315 25.7578C52.1251 28.7484 47.9911 27.6273 47.4266 24.1451C47.4236 24.1254 47.4149 24.1073 47.4017 24.0935C47.3886 24.0796 47.3717 24.0707 47.3536 24.0682L46.0056 23.8674C45.9866 23.8645 45.9665 23.8661 45.9466 23.8719C45.9266 23.8777 45.9072 23.8877 45.8895 23.9013C44.9848 24.5801 44.1791 24.4854 43.4725 23.6171C43.4581 23.5998 43.4414 23.5857 43.4234 23.5756C43.4055 23.5655 43.3867 23.5596 43.3682 23.5584L42.2509 23.492C42.2331 23.4913 42.2155 23.4977 42.2013 23.5099C42.1872 23.5221 42.1775 23.5393 42.174 23.5584C41.9419 24.7474 41.148 25.3458 39.9812 25.3732C38.7314 25.4027 37.4807 25.4197 36.2292 25.424C34.9498 25.4275 34.1637 24.8026 33.8708 23.5493C33.8665 23.5308 33.8557 23.5145 33.8404 23.5032C33.8251 23.492 33.8063 23.4866 33.7873 23.488L32.7496 23.5663C32.6735 23.5721 32.6011 23.6091 32.5475 23.6693ZM15.0676 31.6505C15.0676 31.0993 14.8487 30.5707 14.459 30.181C14.0692 29.7913 13.5407 29.5724 12.9895 29.5724C12.4384 29.5724 11.9098 29.7913 11.5201 30.181C11.1304 30.5707 10.9114 31.0993 10.9114 31.6505C10.9114 32.2016 11.1304 32.7302 11.5201 33.1199C11.9098 33.5096 12.4384 33.7285 12.9895 33.7285C13.5407 33.7285 14.0692 33.5096 14.459 33.1199C14.8487 32.7302 15.0676 32.2016 15.0676 31.6505ZM65.1294 31.6505C65.1294 31.0993 64.9105 30.5707 64.5208 30.181C64.1311 29.7913 63.6025 29.5724 63.0513 29.5724C62.5002 29.5724 61.9716 29.7913 61.5819 30.181C61.1922 30.5707 60.9732 31.0993 60.9732 31.6505C60.9732 32.2016 61.1922 32.7302 61.5819 33.1199C61.9716 33.5096 62.5002 33.7285 63.0513 33.7285C63.6025 33.7285 64.1311 33.5096 64.5208 33.1199C64.9105 32.7302 65.1294 32.2016 65.1294 31.6505ZM29.669 42.08C29.669 41.5289 29.45 41.0003 29.0603 40.6106C28.6706 40.2209 28.142 40.0019 27.5909 40.0019C27.0397 40.0019 26.5112 40.2209 26.1215 40.6106C25.7317 41.0003 25.5128 41.5289 25.5128 42.08C25.5128 42.6311 25.7317 43.1597 26.1215 43.5494C26.5112 43.9391 27.0397 44.1581 27.5909 44.1581C28.142 44.1581 28.6706 43.9391 29.0603 43.5494C29.45 43.1597 29.669 42.6311 29.669 42.08ZM50.5281 42.08C50.5281 41.5289 50.3091 41.0003 49.9194 40.6106C49.5297 40.2209 49.0011 40.0019 48.45 40.0019C47.8988 40.0019 47.3703 40.2209 46.9805 40.6106C46.5908 41.0003 46.3719 41.5289 46.3719 42.08C46.3719 42.6311 46.5908 43.1597 46.9805 43.5494C47.3703 43.9391 47.8988 44.1581 48.45 44.1581C49.0011 44.1581 49.5297 43.9391 49.9194 43.5494C50.3091 43.1597 50.5281 42.6311 50.5281 42.08ZM58.7439 43.651C57.6919 42.3564 56.4025 43.8348 56.0779 44.8829C55.6372 46.304 55.9814 47.6233 56.4442 48.7862C56.877 49.8717 56.9666 50.9738 56.7128 52.0924C56.6832 52.2236 56.7236 52.2505 56.834 52.1732C59.577 50.2502 61.1167 46.5699 58.7439 43.651ZM20.2824 46.2518C20.2824 45.7007 20.0634 45.1721 19.6737 44.7824C19.284 44.3927 18.7554 44.1737 18.2043 44.1737C17.6532 44.1737 17.1246 44.3927 16.7349 44.7824C16.3452 45.1721 16.1262 45.7007 16.1262 46.2518C16.1262 46.803 16.3452 47.3315 16.7349 47.7213C17.1246 48.111 17.6532 48.3299 18.2043 48.3299C18.7554 48.3299 19.284 48.111 19.6737 47.7213C20.0634 47.3315 20.2824 46.803 20.2824 46.2518ZM41.7438 47.5138C41.5821 47.4095 41.4096 47.3856 41.2262 47.4421C40.3997 47.6963 39.6618 48.678 39.225 49.3898C38.804 50.0729 38.525 50.5918 37.6919 50.3337C37.263 50.2007 37.0805 49.8604 36.881 49.4785C36.572 48.8866 35.0741 46.682 34.1954 47.5294C33.6596 48.0457 33.8356 48.9831 34.1028 49.6167C34.8316 51.3493 36.22 52.5682 37.8679 53.3948C37.8977 53.4094 37.9305 53.4173 37.9638 53.4177C37.9972 53.4182 38.0303 53.4112 38.0608 53.3974C39.5175 52.7116 40.6791 51.7221 41.5456 50.4289C41.9902 49.7666 42.6355 48.0887 41.7438 47.5138Z" fill="#FFF0F8"/>
</svg>
