<svg width="73" height="73" viewBox="0 0 73 73" fill="none" xmlns="http://www.w3.org/2000/svg">
<g clip-path="url(#clip0_78_91)">
<path opacity="0.942" fill-rule="evenodd" clip-rule="evenodd" d="M72.2409 15.7474V36.3675C71.5006 38.2154 70.2295 39.6042 68.4276 40.5339C65.6575 41.9988 62.7386 43.058 59.6712 43.7116C58.9836 43.6601 58.6071 43.2836 58.5413 42.5818C58.5594 42.0755 58.7948 41.7224 59.2475 41.5225C61.951 40.8883 64.5402 39.9466 67.0153 38.6979C68.0172 38.1192 68.8882 37.3895 69.6281 36.5087C69.8487 36.1617 69.99 35.7851 70.0518 35.3789C70.146 30.6711 70.146 25.9633 70.0518 21.2555C67.946 22.8381 65.6157 23.9914 63.0608 24.7158C55.4421 26.8509 47.6742 27.9573 39.7573 28.0347C39.7338 29.1656 39.7573 30.2955 39.8279 31.4243C45.385 33.4533 48.4685 37.4078 49.0787 43.2879C51.0491 42.9761 53.0264 42.7643 55.0105 42.6524C55.6111 43.1354 55.7289 43.7239 55.3635 44.4178C55.1982 44.6146 54.9863 44.7323 54.728 44.7709C52.8533 45.0994 50.9702 45.3583 49.0787 45.5477C48.567 49.3983 46.7545 52.4582 43.6412 54.7279C43.7193 55.4367 43.8605 56.1429 44.0649 56.8464C44.4657 61.203 42.6531 64.1923 38.6274 65.8147C33.9367 66.894 30.5706 65.2698 28.5292 60.9421C27.8273 58.9108 27.8979 56.9099 28.7411 54.9397C25.5064 52.639 23.6233 49.5084 23.0917 45.5477C17.4757 45.0412 12.0147 43.8407 6.70865 41.9462C4.55653 41.1183 2.64988 39.9178 0.988694 38.3448C0.558483 37.7654 0.205399 37.1535 -0.0705566 36.5087V15.7474C0.385523 14.5358 1.13877 13.5236 2.18918 12.7109C4.95482 10.858 7.9678 9.53983 11.2281 8.75638C12.9913 8.32134 14.7567 7.92118 16.5244 7.5559C17.5994 7.90431 17.8583 8.58694 17.3011 9.60378C13.9445 10.3253 10.649 11.2669 7.41481 12.4285C5.40574 13.1134 3.73447 14.2669 2.40103 15.8887C1.93191 17.0281 2.12021 18.0638 2.96596 18.9958C4.59358 20.3162 6.40607 21.3284 8.40345 22.0323C9.84153 22.5509 11.3009 22.9982 12.7817 23.374C21.9065 21.4146 31.1338 20.6378 40.4634 21.0437C46.8497 21.1962 53.1582 21.973 59.3887 23.374C62.2055 22.7098 64.8889 21.6976 67.439 20.3375C68.5043 19.7477 69.3283 18.9239 69.9106 17.8659C70.1714 17.0034 70.0302 16.2032 69.4869 15.465C68.1329 14.1164 66.5559 13.1042 64.7556 12.4285C59.635 10.5851 54.3622 9.40816 48.9374 8.89762C39.6546 8.02187 30.3802 8.06894 21.1145 9.03885C20.4473 8.6949 20.2354 8.15351 20.4789 7.41467L20.9732 6.92035C32.6357 5.50407 44.2639 5.73945 55.8579 7.62652C60.4889 8.35419 64.8671 9.8136 68.9926 12.0048C70.4656 12.9349 71.5485 14.1824 72.2409 15.7474ZM2.04794 21.2555C3.58997 22.4272 5.28477 23.3452 7.13235 24.0096C12.1735 25.7523 17.3521 26.8821 22.668 27.3992C25.9066 27.7684 29.155 27.9802 32.4131 28.0347C32.4366 29.1656 32.4131 30.2955 32.3425 31.4243C26.7168 33.4034 23.6332 37.358 23.0917 43.2879C17.7682 42.7741 12.5896 41.6207 7.55605 39.8277C5.7954 39.1473 4.21829 38.1822 2.82473 36.9324C2.47481 36.4679 2.23943 35.95 2.11856 35.3789C2.04794 30.6713 2.0244 25.9636 2.04794 21.2555ZM31.4245 23.2328C37.6102 23.0669 43.7773 23.3257 49.9261 24.0096C51.1128 24.1402 52.2897 24.3286 53.4569 24.5745C41.8758 26.3635 30.2946 26.3635 18.7135 24.5745C22.9446 23.8771 27.1816 23.43 31.4245 23.2328ZM34.5316 28.176H37.6388V43.9941H34.5316V28.176ZM32.2719 33.8253C32.4353 35.0716 32.4589 36.3427 32.3425 37.6386C29.5279 39.4563 28.3508 42.0455 28.8117 45.4064C29.7718 49.1719 32.1962 51.1962 36.0852 51.4795C41.2598 50.8477 43.6842 47.9289 43.3587 42.723C42.9462 40.4819 41.7693 38.7871 39.8279 37.6386C39.7573 36.4155 39.7338 35.1915 39.7573 33.9665C44.2841 35.7866 46.685 39.1526 46.9602 44.0647C46.2673 50.6188 42.6424 54.2203 36.0852 54.8691C29.528 54.2203 25.9031 50.6188 25.2102 44.0647C25.5219 39.2237 27.8759 35.8105 32.2719 33.8253ZM32.2719 40.6045C32.4352 41.7094 32.4587 42.8392 32.3425 43.9941C31.9108 43.8598 31.4636 43.8128 31.0008 43.8529C31.0103 42.5992 31.434 41.5163 32.2719 40.6045ZM39.7573 40.6045C40.7179 41.4583 41.1887 42.5411 41.1696 43.8529C40.7068 43.8128 40.2596 43.8598 39.8279 43.9941C39.7573 42.8652 39.7338 41.7354 39.7573 40.6045ZM31.4245 46.2538C34.5079 46.2763 37.615 46.2527 40.7459 46.1832C38.8945 49.1531 36.3994 49.8593 33.2605 48.3017C32.4666 47.7667 31.8547 47.0842 31.4245 46.2538ZM30.7183 55.999C34.2493 57.4987 37.7801 57.4987 41.3108 55.999C42.2972 58.3906 41.8735 60.5325 40.0397 62.4251C37.6896 64.2314 35.2415 64.3727 32.6956 62.8488C30.5318 60.9951 29.8728 58.7118 30.7183 55.999Z" fill="#FFF0F8"/>
<path opacity="0.925" fill-rule="evenodd" clip-rule="evenodd" d="M6.84985 28.5995C9.6025 28.3733 11.1561 29.6208 11.5106 32.3422C11.2872 34.6606 10.0161 35.9082 7.69725 36.0849C4.91689 35.6807 3.7164 34.0801 4.0958 31.283C4.53539 29.8781 5.4534 28.9836 6.84985 28.5995ZM7.27355 30.8593C6.08812 31.6506 5.99396 32.5686 6.99108 33.6133C8.17833 33.9822 8.93157 33.5585 9.25082 32.3422C9.05326 31.2261 8.39418 30.7317 7.27355 30.8593Z" fill="#FFF0F8"/>
<path opacity="0.925" fill-rule="evenodd" clip-rule="evenodd" d="M63.6257 28.5995C66.3784 28.3733 67.9319 29.6208 68.2864 32.3422C68.063 34.6606 66.7919 35.9082 64.4731 36.0849C61.6928 35.6807 60.4923 34.0801 60.8717 31.283C61.3112 29.8781 62.2292 28.9836 63.6257 28.5995ZM64.0494 30.8593C62.864 31.6506 62.7698 32.5686 63.7669 33.6133C64.9542 33.9822 65.7075 33.5585 66.0267 32.3422C65.8291 31.2261 65.1701 30.7317 64.0494 30.8593Z" fill="#FFF0F8"/>
<path opacity="0.925" fill-rule="evenodd" clip-rule="evenodd" d="M16.8774 31.4242C19.6301 31.198 21.1836 32.4455 21.5381 35.1669C21.3147 37.4853 20.0436 38.7329 17.7248 38.9096C14.9445 38.5054 13.744 36.9048 14.1234 34.1077C14.5629 32.7028 15.4809 31.8083 16.8774 31.4242ZM17.3011 33.684C16.1158 34.4753 16.0216 35.3933 17.0187 36.438C18.2059 36.8069 18.9592 36.3832 19.2784 35.1669C19.0808 34.0508 18.4218 33.5564 17.3011 33.684Z" fill="#FFF0F8"/>
<path opacity="0.925" fill-rule="evenodd" clip-rule="evenodd" d="M53.5981 31.4242C56.3508 31.198 57.9043 32.4455 58.2588 35.1669C58.0354 37.4853 56.7643 38.7329 54.4455 38.9096C51.6652 38.5054 50.4647 36.9048 50.8441 34.1077C51.2836 32.7028 52.2016 31.8083 53.5981 31.4242ZM54.0218 33.684C52.8365 34.4753 52.7423 35.3933 53.7394 36.438C54.9266 36.8069 55.6799 36.3832 55.9991 35.1669C55.8015 34.0508 55.1425 33.5564 54.0218 33.684Z" fill="#FFF0F8"/>
</g>
<defs>
<clipPath id="clip0_78_91">
<rect width="72.3115" height="72.3115" fill="white"/>
</clipPath>
</defs>
</svg>
