<svg width="41" height="64" viewBox="0 0 41 64" fill="none" xmlns="http://www.w3.org/2000/svg">
<path d="M32.5915 50.5189C32.0038 49.9312 31.9836 48.9848 32.5458 48.3726L35.3233 45.3478C38.4506 41.9419 38.4506 36.3193 35.3233 32.9134C32.3356 29.6596 27.6102 29.6596 24.6225 32.9134L22.9975 34.6825C21.5924 36.2127 19.1788 36.2127 17.7737 34.6825L16.1492 32.9134C13.1615 29.6596 8.43613 29.6596 5.44842 32.9134C2.32103 36.3193 2.32102 41.9419 5.44842 45.3478L18.4274 59.4816C19.4812 60.6292 21.2914 60.6292 22.3452 59.4816L25.6203 55.9148C26.2174 55.2646 27.2359 55.2429 27.8601 55.867C28.4478 56.4547 28.4679 57.4012 27.9058 58.0133L24.6307 61.5801L24.5225 61.6948C22.2253 64.0661 18.3895 64.0277 16.1418 61.5801L3.1629 47.4463C-0.988312 42.9254 -1.0533 35.6395 2.96812 31.0321L3.1629 30.8148C7.38007 26.2221 14.2175 26.2221 18.4347 30.8148L20.0592 32.584C20.2239 32.7632 20.4993 32.7745 20.6778 32.6177L20.7124 32.584L22.337 30.8148C26.5541 26.2221 33.3916 26.2221 37.6088 30.8148C41.8258 35.4075 41.8258 42.8536 37.6088 47.4463L34.8312 50.4712C34.2342 51.1214 33.2157 51.1431 32.5915 50.5189Z" fill="#FFF0F8"/>
<path d="M24.6256 26.8903C24.6255 24.9999 22.9149 23.1401 20.3858 23.14C17.8566 23.14 16.146 24.9999 16.1459 26.8903C16.1459 28.7808 17.8565 30.6411 20.3858 30.6411V33.3006L20.2079 33.2984C16.4797 33.2108 13.4864 30.3752 13.4864 26.8903C13.4865 24.1561 15.3293 21.8217 17.9239 20.9007C18.6886 20.6292 19.5185 20.4805 20.3858 20.4805L20.5637 20.4827C21.3666 20.5016 22.1354 20.6479 22.8476 20.9007C25.4422 21.8217 27.2851 24.1561 27.2851 26.8903L27.283 27.0561C27.1884 30.5197 24.1366 33.3006 20.3858 33.3006V30.6411C22.915 30.6411 24.6256 28.7808 24.6256 26.8903Z" fill="#FFF0F8"/>
<path fill-rule="evenodd" clip-rule="evenodd" d="M20.3858 20.4805L20.5637 20.4827C21.3666 20.5016 22.1354 20.6479 22.8476 20.9007C24.0724 20.1241 24.9055 18.785 24.9835 17.2469L24.9896 17.0097C24.9895 15.0013 23.7032 13.2934 21.9096 12.6644V8.18637C21.9194 7.9761 21.8659 7.75512 21.7461 7.55813C21.4174 7.01793 20.6994 6.88108 20.0679 6.9136C19.9435 6.92001 19.8181 6.9167 19.693 6.90278C19.1847 6.84618 18.7095 6.62233 18.3416 6.2669C17.9739 5.91153 17.7339 5.44447 17.6599 4.93845C17.5859 4.43233 17.6819 3.91562 17.9326 3.46975C18.1832 3.02394 18.5746 2.67394 19.0455 2.47416C19.5163 2.27438 20.0401 2.23596 20.5349 2.36552C21.0297 2.49508 21.4677 2.78522 21.7803 3.19012C21.8571 3.2897 21.9254 3.39481 21.9846 3.50438C22.0776 3.67674 22.189 3.84777 22.317 4.00174C22.5765 4.31383 22.9048 4.5561 23.2905 4.59735L23.4074 4.60341C24.0398 4.6034 24.5665 4.08314 24.4108 3.47018C24.2568 2.86419 23.98 2.29195 23.5931 1.79068C22.9711 0.984884 22.0997 0.407956 21.115 0.150128C20.1302 -0.107699 19.0878 -0.0319047 18.1507 0.365693C17.2138 0.763267 16.435 1.46014 15.9362 2.34734C15.4374 3.23463 15.2466 4.26239 15.3938 5.26959C15.5411 6.27673 16.018 7.20664 16.75 7.91394C17.4304 8.57144 18.2957 9.00218 19.2268 9.15007V12.5533C17.2454 13.0671 15.7822 14.8675 15.7822 17.0097C15.7822 18.6468 16.6366 20.0844 17.9239 20.9007C18.6886 20.6292 19.5185 20.4805 20.3858 20.4805ZM20.3856 15.0657C21.4593 15.0657 22.33 15.9361 22.3301 17.0097C22.3301 18.0834 21.4593 18.9541 20.3856 18.9541C19.312 18.9541 18.4417 18.0834 18.4417 17.0097C18.4417 15.9361 19.312 15.0658 20.3856 15.0657Z" fill="#FFF0F8"/>
<path d="M32.2472 53.5285C32.2472 54.3668 31.5677 55.0463 30.7294 55.0463C29.8912 55.0463 29.2117 54.3668 29.2117 53.5285C29.2117 52.6903 29.8912 52.0108 30.7294 52.0108C31.5677 52.0108 32.2472 52.6903 32.2472 53.5285Z" fill="#FFF0F8"/>
</svg>
