<svg width="45" height="72" viewBox="0 0 45 72" fill="none" xmlns="http://www.w3.org/2000/svg">
<path d="M40.1004 59.9934C43.2254 60.8043 45.0088 63.2329 44.3707 66.4085C43.3645 71.4057 36.3742 71.5015 32.3043 70.7026C26.0585 69.4763 22.4181 64.2915 19.6899 59.1465C17.976 55.915 16.7899 53.2427 14.078 51.8526C8.29023 48.8887 -2.18501 46.0686 0.404144 36.8133C0.72864 35.6602 1.42535 34.3021 2.49428 32.7389C4.11813 30.3702 6.62139 28.285 7.03042 25.3451C7.04132 25.2679 7.04678 23.9484 7.04678 21.3865C7.04678 14.8569 7.04678 8.3272 7.04678 1.79752C7.04678 0.603169 7.28401 0 8.65426 0C16.1613 0 23.6697 0 31.1795 0C32.3275 0 32.8988 0.5326 32.8933 1.5978C32.8415 10.3191 32.8156 19.0404 32.8156 27.7618C32.8156 37.728 35.2534 48.5172 38.2066 58.1C38.5202 59.1146 39.1515 59.7457 40.1004 59.9934ZM9.6073 2.27287C9.55197 2.27287 9.49891 2.29433 9.45979 2.33254C9.42067 2.37074 9.39869 2.42256 9.39869 2.47659V10.5894C9.39853 10.659 9.41828 10.7274 9.45578 10.7873C9.49328 10.8471 9.54711 10.8961 9.61139 10.9289C17.1212 14.5879 22.6799 14.5799 30.2101 10.9729C30.2862 10.9358 30.3503 10.8792 30.3951 10.8093C30.4399 10.7395 30.4636 10.6592 30.4637 10.5774L30.4392 2.51653C30.4392 2.46462 30.4176 2.41484 30.3792 2.37813C30.3409 2.34143 30.2889 2.3208 30.2346 2.3208L9.6073 2.27287ZM30.2715 13.5174C23.1543 16.8408 16.8717 16.9007 9.75046 13.5533C9.7132 13.5359 9.67203 13.5281 9.63077 13.5306C9.58951 13.5332 9.54949 13.546 9.51442 13.5679C9.47935 13.5898 9.45035 13.6201 9.43013 13.6559C9.4099 13.6918 9.39909 13.7321 9.39869 13.773V17.7516C9.39866 17.9129 9.44858 18.0703 9.54185 18.2029C12.2701 22.1016 17.9106 28.9441 23.3834 25.2412C26.0694 23.4224 28.2727 21.2228 29.9933 18.6423C30.8073 17.424 30.476 15.1032 30.4596 13.6332C30.4598 13.6115 30.4542 13.59 30.4435 13.571C30.4329 13.5519 30.4174 13.5358 30.3985 13.5242C30.3797 13.5126 30.3581 13.5059 30.3359 13.5047C30.3137 13.5035 30.2915 13.5079 30.2715 13.5174ZM40.7467 62.6937C40.4549 62.4886 40.1331 62.3488 39.7814 62.2742C37.274 61.747 36.2678 60.0972 35.5479 57.6606C33.4346 50.4998 31.9267 43.2205 31.0241 35.8227C30.5046 31.5446 30.4351 27.0428 30.4392 22.6967C30.4392 22.2653 30.2933 22.2121 30.0015 22.537C28.2454 24.5049 26.2411 26.2052 23.9888 27.6379C23.9598 27.656 23.935 27.6797 23.9158 27.7075C23.8967 27.7353 23.8836 27.7668 23.8775 27.7997C23.8714 27.8327 23.8723 27.8666 23.8801 27.8993C23.888 27.9319 23.9027 27.9626 23.9233 27.9895C26.2821 31.1318 26.4239 34.0251 24.3487 36.6695C19.0845 43.3763 10.2577 34.3806 15.9145 28.1333C15.9509 28.0924 15.9779 28.0443 15.9934 27.9924C16.009 27.9405 16.0128 27.886 16.0047 27.8327C15.9965 27.7794 15.9765 27.7287 15.9461 27.684C15.9157 27.6393 15.8756 27.6018 15.8286 27.574C13.549 26.2212 11.5952 24.5715 9.96724 22.6248C9.50095 22.0683 9.31143 22.1482 9.39869 22.8645C10.274 30.0187 4.40854 31.4966 2.7397 37.2287C1.56988 41.2512 3.57003 43.9674 7.11222 45.8648C12.1678 48.5651 17.6406 49.7834 20.4588 55.5275C24.0992 62.9493 28.6312 70.3831 38.4848 68.5416C39.7991 68.2966 40.7249 67.9225 41.2621 67.4191C42.6855 66.081 42.4278 63.88 40.7467 62.6937ZM19.9253 36.6495C20.8452 36.6526 21.7289 36.2394 22.382 35.5008C23.0351 34.7621 23.4042 33.7585 23.4079 32.7108C23.4116 31.663 23.0498 30.657 22.402 29.9139C21.7541 29.1708 20.8734 28.7516 19.9535 28.7484C19.0336 28.7453 18.1499 29.1585 17.4967 29.8972C16.8436 30.6358 16.4746 31.6394 16.4708 32.6871C16.4671 33.7349 16.829 34.741 17.4768 35.484C18.1246 36.2271 19.0054 36.6463 19.9253 36.6495Z" fill="#FFF0F8"/>
</svg>
