<svg width="72" height="72" viewBox="0 0 72 72" fill="none" xmlns="http://www.w3.org/2000/svg">
<g clip-path="url(#clip0_78_95)">
<path d="M27.3712 0H43.671L43.9276 0.0568759L44.1468 0.137334L44.3396 0.248312L44.4978 0.384259L44.6656 0.617312L44.7836 0.923887L44.8515 1.30815L44.8737 1.79367C44.8774 4.70936 44.8783 7.64095 44.8765 10.5664L44.8488 11.0464L44.7711 11.4293L44.6351 11.7414L44.4506 11.9689L44.1884 12.1437L43.8458 12.2533L43.4171 12.306L42.7416 12.3185L42.1187 12.3254C42.0995 12.3258 42.0811 12.3333 42.0676 12.3462C42.0542 12.3592 42.0466 12.3766 42.0466 12.3948L42.0521 14.09C42.0525 14.1084 42.0603 14.126 42.074 14.1392C42.0877 14.1523 42.1062 14.16 42.1257 14.1607C47.1996 14.3528 51.3184 16.317 54.4511 20.0383L55.171 20.9622L55.8175 21.9319L56.3932 22.9557L56.8926 24.0183L57.3143 25.1211L57.6555 26.2545L57.9136 27.4114L58.0897 28.5892C58.1563 29.1818 58.1901 30.1076 58.191 31.3594C58.1956 39.1225 58.1961 46.9192 58.1924 54.691L58.1425 55.9881L57.9926 57.2837L57.7457 58.5517L57.4031 59.7821L56.9619 60.9918L56.4306 62.1529L55.8064 63.2724L55.0989 64.3336L54.526 65.0771L53.9128 65.7846L53.2595 66.4546L52.5686 67.0858L51.8459 67.6726L51.0885 68.2178L50.3005 68.72L49.4793 69.1764L48.6359 69.5856L47.7647 69.9463L46.8824 70.2542L45.9752 70.5122L45.061 70.7176L44.126 70.8729L43.1883 70.9756L42.2325 71.0255H28.7765C24.5967 70.8952 21.0259 69.4748 18.0907 66.7751C14.613 63.5753 12.863 59.5024 12.854 54.587C12.8401 46.8768 12.8336 39.1032 12.8346 31.3247C12.8339 30.0785 12.8686 29.1527 12.9386 28.5545L13.1176 27.3781L13.3784 26.2212L13.721 25.0906L14.1455 23.9891L14.6449 22.9279L15.2233 21.9069L15.8698 20.9387L16.5898 20.0189C19.7251 16.3105 23.8388 14.3524 28.8999 14.1593C28.9194 14.1586 28.9379 14.1508 28.9516 14.1373C28.9653 14.1239 28.9731 14.106 28.9734 14.0872L28.979 12.3948C28.979 12.3766 28.9714 12.3592 28.9579 12.3462C28.9444 12.3333 28.9261 12.3258 28.9069 12.3254L28.2743 12.3171L27.6029 12.3032L27.1798 12.2505L26.8413 12.1437L26.5833 11.9731L26.3946 11.74L26.2573 11.421L26.1768 11.0228L26.1491 10.522C26.1481 7.61275 26.1486 4.69739 26.1505 1.79783L26.1727 1.30953L26.2406 0.922499L26.3613 0.614537L26.5306 0.381485L26.6901 0.245537L26.8871 0.13456L27.109 0.0554887L27.3712 0ZM42.3448 2.60242C42.3448 2.59313 42.343 2.58393 42.3394 2.57535C42.3359 2.56676 42.3307 2.55896 42.3241 2.55239C42.3175 2.54582 42.3097 2.54061 42.3012 2.53706C42.2926 2.5335 42.2834 2.53167 42.2741 2.53167H28.7515C28.7422 2.53167 28.733 2.5335 28.7244 2.53706C28.7158 2.54061 28.708 2.54582 28.7015 2.55239C28.6949 2.55896 28.6897 2.56676 28.6861 2.57535C28.6826 2.58393 28.6807 2.59313 28.6807 2.60242V3.64006C28.6807 3.65882 28.6882 3.67682 28.7015 3.69008C28.7147 3.70335 28.7327 3.71081 28.7515 3.71081H42.2741C42.2928 3.71081 42.3108 3.70335 42.3241 3.69008C42.3374 3.67682 42.3448 3.65882 42.3448 3.64006V2.60242ZM42.3448 6.31184C42.3448 6.29344 42.3375 6.2758 42.3245 6.26279C42.3115 6.24978 42.2939 6.24248 42.2755 6.24248H28.7501C28.7317 6.24248 28.7141 6.24978 28.7011 6.26279C28.6881 6.2758 28.6807 6.29344 28.6807 6.31184V9.71052C28.6807 9.72892 28.6881 9.74656 28.7011 9.75957C28.7141 9.77257 28.7317 9.77988 28.7501 9.77988H42.2755C42.2939 9.77988 42.3115 9.77257 42.3245 9.75957C42.3375 9.74656 42.3448 9.72892 42.3448 9.71052V6.31184ZM39.501 12.4336C39.501 12.4012 39.4882 12.3702 39.4653 12.3473C39.4424 12.3244 39.4113 12.3116 39.379 12.3116H31.6466C31.6142 12.3116 31.5832 12.3244 31.5603 12.3473C31.5374 12.3702 31.5245 12.4012 31.5245 12.4336V14.0622C31.5245 14.0946 31.5374 14.1256 31.5603 14.1485C31.5832 14.1714 31.6142 14.1843 31.6466 14.1843H39.379C39.4113 14.1843 39.4424 14.1714 39.4653 14.1485C39.4882 14.1256 39.501 14.0946 39.501 14.0622V12.4336ZM55.6862 30.4097C55.6925 26.7872 54.2596 23.3106 51.7026 20.7447C49.1456 18.1787 45.674 16.7337 42.0515 16.7273L29.0644 16.7047C25.442 16.6984 21.9653 18.1313 19.3994 20.6883C16.8335 23.2453 15.3884 26.7169 15.3821 30.3394L15.3394 54.7959C15.3331 58.4184 16.766 61.895 19.323 64.461C21.88 67.0269 25.3516 68.472 28.9741 68.4783L41.9612 68.501C45.5836 68.5073 49.0602 67.0743 51.6262 64.5173C54.1921 61.9603 55.6372 58.4888 55.6435 54.8663L55.6862 30.4097Z" fill="#FFF0F8"/>
<path d="M52.3008 46.2995L51.9679 46.3744L51.6308 46.3563L51.4172 46.2911L51.223 46.1871L51.0385 46.0414L50.8803 45.8611L50.7555 45.66L50.6639 45.4366L50.6056 45.1966L50.5862 44.9455C50.5936 40.38 50.5973 35.7739 50.5973 31.1621C50.5972 29.994 50.5318 29.1114 50.4017 28.5209L50.1354 27.5651L49.962 27.0962L49.7636 26.644L49.5403 26.207L49.2947 25.7853L49.0256 25.383L48.7371 24.9987L48.1156 24.3079L47.4234 23.6906L46.6548 23.1454L45.8267 22.6849L44.95 22.3159L44.0261 22.0356L43.0758 21.8511L42.0923 21.7624L41.8648 21.736L41.6567 21.6805L41.4569 21.5903L41.2822 21.4738L41.1143 21.3157L40.9784 21.1326L40.8715 20.9203L40.8063 20.6956L40.7814 20.4639L40.7994 20.2323L40.8577 20.0228L40.9562 19.8258L41.0755 19.6718L41.2253 19.5331L41.3959 19.4249L41.5943 19.3361C41.782 19.2688 42.0527 19.2415 42.4044 19.2543L43.4407 19.3403L44.4506 19.5192L45.1275 19.694L45.7878 19.9104L46.444 20.1712L47.0779 20.4723L47.6939 20.8121L48.2848 21.1894L48.8508 21.6014L49.3891 22.0495L49.8982 22.5295L50.3767 23.04L50.8234 23.581L51.2354 24.1512L51.6114 24.7435L51.9485 25.3622L52.2412 25.992L52.495 26.6426L52.8085 27.6913L53.0152 28.7567C53.092 29.2875 53.1304 30.2123 53.1304 31.5242C53.1313 35.9522 53.1308 40.3895 53.129 44.8027L53.111 45.1772L53.0555 45.4879L52.9611 45.7418L52.8155 45.9624L52.5963 46.1524L52.3008 46.2995Z" fill="#FFF0F8"/>
<path d="M51.9233 49.9647L51.8234 49.9645C51.1599 49.9633 50.6211 50.5003 50.62 51.1637L50.6135 54.8842C50.6123 55.5477 51.1492 56.0865 51.8127 56.0877L51.9126 56.0878C52.5761 56.089 53.1149 55.5521 53.116 54.8886L53.1225 51.1681C53.1237 50.5046 52.5868 49.9658 51.9233 49.9647Z" fill="#FFF0F8"/>
</g>
<defs>
<clipPath id="clip0_78_95">
<rect width="71.0255" height="71.0255" fill="white"/>
</clipPath>
</defs>
</svg>
