<svg width="21" height="21" viewBox="0 0 21 21" fill="none" xmlns="http://www.w3.org/2000/svg">
<path d="M10.5463 11.1203C10.4769 11.1116 10.4068 11.1116 10.3374 11.1203C9.59951 11.0954 8.90014 10.7847 8.38707 10.2538C7.87399 9.72286 7.58739 9.01327 7.58781 8.27494C7.58781 6.7 8.8582 5.4209 10.4418 5.4209C11.1897 5.4196 11.9081 5.71223 12.4421 6.2357C12.9762 6.75916 13.2832 7.47154 13.2969 8.21924C13.3106 8.96694 13.0299 9.69008 12.5154 10.2328C12.0008 10.7754 11.2936 11.0942 10.5463 11.1203ZM16.3065 16.8631C14.7075 18.3329 12.6137 19.1468 10.4418 19.1429C8.1795 19.1429 6.12598 18.2815 4.57715 16.8631C4.66416 16.0452 5.18624 15.2447 6.11728 14.6182C8.50145 13.0346 12.3996 13.0346 14.7664 14.6182C15.6974 15.2447 16.2195 16.0452 16.3065 16.8631Z" stroke="black" stroke-width="1.3052" stroke-linecap="round" stroke-linejoin="round"/>
<path d="M10.4416 19.1429C15.2473 19.1429 19.1429 15.2473 19.1429 10.4416C19.1429 5.63582 15.2473 1.74023 10.4416 1.74023C5.63582 1.74023 1.74023 5.63582 1.74023 10.4416C1.74023 15.2473 5.63582 19.1429 10.4416 19.1429Z" stroke="black" stroke-width="1.3052" stroke-linecap="round" stroke-linejoin="round"/>
</svg>
