<svg width="21" height="21" viewBox="0 0 21 21" fill="none" xmlns="http://www.w3.org/2000/svg">
<path d="M1.74023 1.74023H3.25438C4.19419 1.74023 4.93386 2.54952 4.85555 3.48063L4.13328 12.1478C4.10508 12.4836 4.14693 12.8216 4.25618 13.1403C4.36543 13.4591 4.5397 13.7517 4.76795 13.9995C4.9962 14.2474 5.27344 14.4452 5.58212 14.5803C5.8908 14.7154 6.22418 14.785 6.56113 14.7845H15.8288C17.0818 14.7845 18.1783 13.7577 18.274 12.5133L18.7439 5.9868C18.8483 4.54227 17.7519 3.36751 16.2987 3.36751H5.06439M7.83162 6.96143H18.274M14.1406 19.1442C14.4291 19.1442 14.7057 19.0296 14.9097 18.8256C15.1137 18.6216 15.2283 18.3449 15.2283 18.0565C15.2283 17.768 15.1137 17.4913 14.9097 17.2873C14.7057 17.0833 14.4291 16.9687 14.1406 16.9687C13.8521 16.9687 13.5754 17.0833 13.3714 17.2873C13.1674 17.4913 13.0528 17.768 13.0528 18.0565C13.0528 18.3449 13.1674 18.6216 13.3714 18.8256C13.5754 19.0296 13.8521 19.1442 14.1406 19.1442ZM7.17898 19.1442C7.46746 19.1442 7.74414 19.0296 7.94813 18.8256C8.15212 18.6216 8.26672 18.3449 8.26672 18.0565C8.26672 17.768 8.15212 17.4913 7.94813 17.2873C7.74414 17.0833 7.46746 16.9687 7.17898 16.9687C6.89049 16.9687 6.61381 17.0833 6.40982 17.2873C6.20583 17.4913 6.09123 17.768 6.09123 18.0565C6.09123 18.3449 6.20583 18.6216 6.40982 18.8256C6.61381 19.0296 6.89049 19.1442 7.17898 19.1442Z" stroke="#0F0008" stroke-width="1.3053" stroke-miterlimit="10" stroke-linecap="round" stroke-linejoin="round"/>
</svg>
