<svg width="17" height="14" viewBox="0 0 17 14" fill="none" xmlns="http://www.w3.org/2000/svg">
<path d="M8.05762 4.53516C9.31998 4.53533 10.3389 5.55366 10.3389 6.81445C10.3389 8.07524 9.31998 9.09357 8.05762 9.09375C6.79511 9.09375 5.77638 8.07535 5.77637 6.81445C5.77637 5.55355 6.7951 4.53516 8.05762 4.53516Z" stroke="#0F0008" stroke-width="1.33353" stroke-linecap="round" stroke-linejoin="round"/>
<path d="M8.05762 0.666992C10.6815 0.667094 13.2003 2.21092 14.9961 5.03223L14.9971 5.0332C15.2827 5.48049 15.4482 6.12557 15.4482 6.81055C15.4482 7.49535 15.2827 8.13972 14.9971 8.58691L14.9961 8.58789C13.2003 11.4093 10.6815 12.953 8.05762 12.9531C5.43354 12.9531 2.91404 11.4095 1.11816 8.58789V8.58691L1.0166 8.41016C0.793624 7.97788 0.667046 7.40977 0.666992 6.81055C0.666992 6.12557 0.832505 5.48049 1.11816 5.0332V5.03223C2.91403 2.21069 5.43358 0.666992 8.05762 0.666992Z" stroke="#0F0008" stroke-width="1.33353" stroke-linecap="round" stroke-linejoin="round"/>
</svg>
