<svg width="20" height="15" viewBox="0 0 20 15" fill="none" xmlns="http://www.w3.org/2000/svg">
<path d="M19.8585 1.24129V13.6528C19.8585 14.3562 19.3206 14.894 18.6173 14.894H17.3762V3.6301L9.92923 8.97782L2.48231 3.6301V14.894H1.24115C0.537006 14.894 0 14.3562 0 13.6528V1.24129C0 0.889626 0.134045 0.579338 0.356625 0.357584C0.472784 0.242041 0.610878 0.150895 0.762782 0.089508C0.914686 0.028121 1.07733 -0.00226698 1.24115 0.000131704H1.65487L9.92923 5.99905L18.2036 0.000131704H18.6173C18.969 0.000131704 19.2793 0.134176 19.5018 0.357584C19.7252 0.579338 19.8585 0.889626 19.8585 1.24129Z" fill="#FFF0F8"/>
</svg>
