<svg width="15" height="15" viewBox="0 0 15 15" fill="none" xmlns="http://www.w3.org/2000/svg">
<path d="M7.44699 0C5.42389 0 5.17131 0.00930875 4.37697 0.044682C3.58386 0.081917 3.04396 0.206654 2.56921 0.390967C2.07957 0.580866 1.66378 0.835926 1.24985 1.24985C0.835924 1.66378 0.580245 2.07895 0.390967 2.56921C0.206654 3.04396 0.0812963 3.58387 0.0446819 4.37697C0.00744699 5.17132 0 5.4239 0 7.447C0 9.4701 0.00930873 9.72268 0.0446819 10.517C0.0819169 11.3095 0.206654 11.85 0.390967 12.3248C0.577943 12.8218 0.871047 13.272 1.24985 13.6441C1.62175 14.0232 2.07206 14.3164 2.56921 14.503C3.04458 14.6867 3.58448 14.8127 4.37697 14.8493C5.17131 14.8865 5.42389 14.894 7.44699 14.894C9.47009 14.894 9.72266 14.8847 10.517 14.8493C11.3095 14.8121 11.85 14.6867 12.3248 14.503C12.8216 14.3158 13.2718 14.0227 13.6441 13.6441C14.0233 13.2723 14.3165 12.822 14.503 12.3248C14.6867 11.85 14.8127 11.3095 14.8493 10.517C14.8865 9.72268 14.894 9.4701 14.894 7.447C14.894 5.4239 14.8847 5.17132 14.8493 4.37697C14.8121 3.58449 14.6867 3.04334 14.503 2.56921C14.3159 2.07226 14.0229 1.62204 13.6441 1.24985C13.2725 0.870456 12.8221 0.57726 12.3248 0.390967C11.85 0.206654 11.3095 0.0812964 10.517 0.044682C9.72266 0.007447 9.47009 0 7.44699 0ZM7.44699 1.34046C9.43471 1.34046 9.67178 1.35039 10.4568 1.38452C11.1829 1.41865 11.577 1.53905 11.8389 1.64206C12.1876 1.77673 12.4346 1.93808 12.6965 2.19811C12.9565 2.45875 13.1179 2.70636 13.2525 3.05513C13.3543 3.31702 13.4759 3.71109 13.5088 4.43717C13.5442 5.22283 13.5523 5.45865 13.5523 7.447C13.5523 9.43535 13.543 9.67179 13.5064 10.4568C13.4685 11.1829 13.3475 11.577 13.2451 11.8389C13.1239 12.162 12.9335 12.4548 12.6872 12.6965C12.4465 12.9431 12.1539 13.133 11.8308 13.2526C11.5701 13.3543 11.1699 13.476 10.4438 13.5089C9.65316 13.5442 9.42044 13.5523 7.42837 13.5523C5.43568 13.5523 5.20296 13.543 4.41296 13.5064C3.68626 13.4685 3.28598 13.3475 3.02534 13.2451C2.70196 13.1255 2.40952 12.9348 2.16956 12.6872C1.92044 12.4481 1.72939 12.1552 1.61103 11.8308C1.50864 11.5702 1.38824 11.1699 1.35039 10.4438C1.32246 9.66186 1.31253 9.42045 1.31253 7.43769C1.31253 5.45431 1.32246 5.21228 1.35039 4.42103C1.38824 3.69495 1.50864 3.2953 1.61103 3.03465C1.74135 2.68092 1.90829 2.43889 2.16956 2.17763C2.42958 1.9176 2.67223 1.75004 3.02534 1.62034C3.28598 1.51733 3.67757 1.39631 4.40365 1.35908C5.1949 1.33115 5.42761 1.32184 7.41906 1.32184L7.44699 1.34046ZM7.44699 3.62296C6.94481 3.62296 6.44755 3.72188 5.9836 3.91405C5.51964 4.10623 5.09809 4.3879 4.74299 4.743C4.3879 5.09809 4.10622 5.51965 3.91405 5.9836C3.72187 6.44756 3.62296 6.94482 3.62296 7.447C3.62296 7.94918 3.72187 8.44644 3.91405 8.91039C4.10622 9.37435 4.3879 9.7959 4.74299 10.151C5.09809 10.5061 5.51964 10.7878 5.9836 10.9799C6.44755 11.1721 6.94481 11.271 7.44699 11.271C8.46118 11.271 9.43384 10.8681 10.151 10.151C10.8681 9.43385 11.271 8.46119 11.271 7.447C11.271 6.4328 10.8681 5.46014 10.151 4.743C9.43384 4.02585 8.46118 3.62296 7.44699 3.62296ZM7.44699 9.92933C6.0755 9.92933 4.96466 8.81849 4.96466 7.447C4.96466 6.07551 6.0755 4.96467 7.44699 4.96467C8.81848 4.96467 9.92932 6.07551 9.92932 7.447C9.92932 8.81849 8.81848 9.92933 7.44699 9.92933ZM12.3161 3.47216C12.3075 3.70341 12.2095 3.92231 12.0429 4.08286C11.8762 4.24341 11.6538 4.33311 11.4224 4.33311C11.191 4.33311 10.9686 4.24341 10.802 4.08286C10.6353 3.92231 10.5374 3.70341 10.5288 3.47216C10.5288 3.23515 10.623 3.00785 10.7905 2.84026C10.9581 2.67267 11.1854 2.57852 11.4224 2.57852C11.6594 2.57852 11.8867 2.67267 12.0543 2.84026C12.2219 3.00785 12.3161 3.23515 12.3161 3.47216Z" fill="#FFF0F8"/>
</svg>
