<svg width="15" height="15" viewBox="0 0 15 15" fill="none" xmlns="http://www.w3.org/2000/svg">
<path d="M10.859 8.92524C10.6738 8.83277 9.76281 8.38719 9.59321 8.32514C9.42298 8.2637 9.29952 8.23329 9.17543 8.41822C9.05259 8.60254 8.69717 9.0177 8.5893 9.14058C8.48143 9.26408 8.37293 9.27897 8.18774 9.18712C8.00255 9.09404 7.40519 8.89979 6.69747 8.27177C6.14688 7.78275 5.77463 7.17892 5.66676 6.99399C5.55888 6.80967 5.65553 6.70976 5.74782 6.61791C5.83137 6.53538 5.93363 6.40257 6.02592 6.29521C6.11882 6.18723 6.14938 6.11028 6.21173 5.98678C6.27346 5.86391 6.24291 5.75655 6.19615 5.66408C6.14938 5.57161 5.77899 4.6637 5.62498 4.29445C5.47408 3.93514 5.32131 3.98416 5.20783 3.97796C5.08942 3.97326 4.97091 3.97119 4.85241 3.97175C4.72895 3.97175 4.52817 4.01767 4.35856 4.20261C4.18896 4.38692 3.71008 4.83312 3.71008 5.74103C3.71008 6.64832 4.37415 7.5252 4.46644 7.6487C4.55934 7.77158 5.77338 9.63456 7.63216 10.4333C8.07425 10.6232 8.41908 10.7367 8.68845 10.8211C9.13241 10.962 9.53646 10.9421 9.85509 10.8943C10.2111 10.8416 10.9513 10.4481 11.1059 10.0175C11.2606 9.58678 11.2606 9.21753 11.2138 9.14058C11.1677 9.06363 11.0448 9.0177 10.859 8.92524ZM7.47815 13.5194H7.47565C6.37184 13.5195 5.28832 13.2241 4.33861 12.6642L4.11351 12.5314L1.78084 13.1409L2.40313 10.877L2.2566 10.6449C1.63957 9.667 1.31314 8.53532 1.31505 7.38061C1.31568 3.99844 4.08109 1.24678 7.48064 1.24678C9.1268 1.24678 10.6744 1.88597 11.838 3.04522C12.412 3.61406 12.8671 4.29056 13.1767 5.03558C13.4864 5.7806 13.6445 6.57934 13.6419 7.38557C13.64 10.7677 10.8752 13.5194 7.47815 13.5194ZM12.724 2.16462C12.037 1.47634 11.2195 0.930611 10.3191 0.559046C9.41858 0.187481 8.45296 -0.00252965 7.47815 2.54299e-05C3.39083 2.54299e-05 0.0642249 3.31083 0.0623543 7.37999C0.0623543 8.68073 0.403432 9.95044 1.05254 11.0693L0 14.894L3.93144 13.8676C5.01864 14.4571 6.23695 14.766 7.47503 14.7662H7.47815C11.5648 14.7662 14.8921 11.4554 14.8939 7.38557C14.897 6.41577 14.7067 5.455 14.3343 4.55884C13.9618 3.66268 13.4145 2.84891 12.724 2.16462Z" fill="white"/>
</svg>
